<svg width="320" height="465" viewBox="0 0 320 465" fill="none" xmlns="http://www.w3.org/2000/svg">
<g clip-path="url(#clip0_114_6291)">
<path d="M109.734 45.7924C109.734 45.5376 109.734 45.2828 109.758 45.0319C109.776 44.5431 109.808 44.0609 109.852 43.5853C109.852 43.3932 109.883 43.1932 109.903 43.0051C109.97 42.3582 110.056 41.7192 110.166 41.0998C110.166 41.0057 110.205 40.9155 110.221 40.8215C110.323 40.2922 110.436 39.7708 110.562 39.2533C110.609 39.073 110.656 38.8927 110.707 38.7123C110.828 38.2693 110.962 37.8381 111.099 37.4069C111.154 37.2461 111.201 37.0815 111.259 36.9247C111.467 36.3484 111.691 35.7839 111.938 35.239C112.212 34.6431 112.506 34.0629 112.828 33.5023C113.195 32.8752 113.6 32.2704 114.039 31.6911C114.192 31.4872 114.353 31.299 114.509 31.1109C114.815 30.7463 115.129 30.3974 115.458 30.0759C115.635 29.8995 115.815 29.727 115.999 29.5663C116.346 29.2639 116.71 28.9812 117.089 28.7195C117.261 28.598 117.43 28.4686 117.606 28.3588C118.159 28.0095 118.742 27.7091 119.347 27.4611L97.9383 36.0936C97.3328 36.3454 96.7493 36.6469 96.1937 36.9952C96.0173 37.105 95.8527 37.2344 95.6802 37.3559C95.2992 37.6163 94.9339 37.8991 94.5864 38.2027C94.4061 38.3634 94.2257 38.5359 94.0493 38.7084C93.72 39.0338 93.4064 39.3827 93.1006 39.7512C92.9399 39.9394 92.7792 40.1432 92.6302 40.3275C92.5557 40.4216 92.4773 40.5039 92.4067 40.6019C92.0514 41.097 91.7216 41.6099 91.4188 42.1387L91.3365 42.2876C91.0464 42.8104 90.7772 43.3331 90.5289 43.8558C90.3041 44.3471 90.0964 44.8489 89.9056 45.3612C89.8821 45.4239 89.8664 45.4945 89.8429 45.5572C89.7841 45.714 89.7331 45.8786 89.6821 46.0394C89.592 46.2981 89.4979 46.5569 89.4195 46.8234C89.3685 46.9959 89.3293 47.1724 89.2822 47.3448C89.2352 47.5173 89.1842 47.7016 89.1372 47.8859C89.0902 48.0701 89.0627 48.1524 89.0314 48.2779C88.9412 48.6699 88.8706 49.0619 88.7961 49.454C88.7961 49.5481 88.7569 49.6382 88.7413 49.7323C88.7413 49.7558 88.7413 49.7793 88.7413 49.8068C88.6511 50.3243 88.5766 50.8496 88.5139 51.3749C88.5139 51.4572 88.5139 51.5435 88.4943 51.6258C88.4707 51.8179 88.459 52.0178 88.4433 52.2021C88.4159 52.4922 88.3845 52.7823 88.3649 53.0763C88.3649 53.2645 88.3649 53.4683 88.3649 53.6487C88.3649 53.9035 88.3453 54.1583 88.3414 54.4327C88.3414 54.6092 88.3218 54.7817 88.3218 54.962C88.3218 55.2325 88.3218 55.5147 88.3414 55.7892C88.361 56.0636 88.3414 56.3968 88.3414 56.7065C88.3414 56.8281 88.3414 56.9457 88.3414 57.0672C88.3688 57.6435 88.4119 58.2433 88.4629 58.8235L109.907 50.1753C109.84 49.454 109.801 48.7522 109.774 48.0544C109.774 47.7486 109.774 47.4507 109.75 47.1488C109.734 46.698 109.734 46.2432 109.734 45.7924Z" fill="url(#paint0_linear_114_6291)"/>
<path d="M161.326 131.106L163.752 157.501L185.192 148.853L182.766 122.462L161.326 131.106Z" fill="url(#paint1_linear_114_6291)"/>
<path d="M129.289 123.787L107.849 132.435L161.326 131.106L182.766 122.462L129.289 123.787Z" fill="url(#paint2_linear_114_6291)"/>
<path d="M171.342 36.8346C171.344 36.8085 171.344 36.7823 171.342 36.7562C171.136 35.5174 170.894 34.3073 170.617 33.126C170.57 32.9339 170.507 32.7575 170.46 32.5654C170.346 32.095 170.209 31.6402 170.068 31.1776C169.907 30.5974 169.766 30.0015 169.59 29.437C169.496 29.1312 169.37 28.8489 169.268 28.5471C169.057 27.9198 168.829 27.3043 168.598 26.6967C168.445 26.3047 168.32 25.8734 168.155 25.4814C167.99 25.0894 167.763 24.6777 167.602 24.27C167.441 23.8623 167.285 23.5644 167.12 23.2194C166.579 22.106 166.007 21.0201 165.383 19.9812C165.352 19.9302 165.328 19.8793 165.297 19.8283V19.797C164.642 18.7189 163.929 17.6996 163.18 16.7038C162.96 16.4098 162.725 16.1276 162.494 15.8375C162.188 15.4454 161.898 15.0534 161.577 14.6849C161.255 14.3164 160.957 14.0263 160.651 13.6931C160.424 13.4461 160.201 13.1991 159.965 12.96C159.122 12.1014 158.256 11.2703 157.331 10.4902L157.186 10.3726C156.279 9.61202 155.337 8.89461 154.359 8.22032C154.253 8.14583 154.14 8.08703 154.03 8.01254C153.775 7.84005 153.509 7.68323 153.246 7.51466C152.744 7.19319 152.25 6.85605 151.729 6.55419C151.372 6.34641 150.996 6.16216 150.631 5.96614C150.357 5.82109 150.082 5.6682 149.804 5.52707C149.596 5.42122 149.412 5.30362 149.192 5.19777C148.353 4.78614 147.491 4.4137 146.613 4.04127L146.37 3.9511C146.185 3.87662 145.997 3.81389 145.817 3.74333C145.194 3.50027 144.57 3.25329 143.927 3.03768C143.473 2.88479 142.998 2.75541 142.532 2.61428C142.238 2.52411 141.944 2.43002 141.646 2.34378C141.446 2.28497 141.254 2.21833 141.05 2.16345C140.027 1.8851 138.976 1.6342 137.914 1.41467C137.831 1.41467 137.749 1.38723 137.667 1.37155C137.4 1.31667 137.122 1.27746 136.851 1.23041C136.036 1.07752 135.228 0.920718 134.389 0.799189C134.068 0.756065 133.727 0.732544 133.397 0.689421C132.856 0.622776 132.308 0.563962 131.755 0.509078C131.277 0.462035 130.822 0.391472 130.336 0.352269C129.85 0.313065 129.34 0.31306 128.85 0.285618C128.117 0.242495 127.384 0.2033 126.635 0.183698C126.243 0.183698 125.91 0.136653 125.533 0.132733C124.462 0.117051 123.373 0.117051 122.268 0.132733C121.719 0.132733 121.174 0.168021 120.629 0.199383C120.084 0.230745 119.453 0.305229 118.865 0.356193C118.343 0.403236 117.814 0.438513 117.297 0.497318C117.116 0.497318 116.905 0.524758 116.744 0.544359C116.027 0.638447 115.329 0.779579 114.623 0.901108C114.133 0.987355 113.627 1.05008 113.145 1.14809L112.851 1.19906C112.224 1.33235 111.624 1.52052 111.009 1.67341C110.393 1.8263 109.652 1.99488 108.994 2.19482C108.907 2.21834 108.817 2.23401 108.735 2.26145C107.551 2.62473 106.392 3.03636 105.258 3.49635L83.8174 12.1406C85.0327 11.6506 86.2793 11.2272 87.5495 10.843C88.212 10.6431 88.8981 10.4902 89.5763 10.3216C90.2545 10.153 90.9798 9.92956 91.7011 9.79627C92.1872 9.69827 92.6929 9.63162 93.1869 9.54929C94.069 9.3964 94.951 9.25135 95.8527 9.15726C96.3702 9.09454 96.8994 9.05926 97.4208 9.01614C98.542 8.91813 99.6632 8.82012 100.82 8.79268C102.313 8.7574 103.756 8.79268 105.187 8.82405C105.936 8.84757 106.669 8.88676 107.398 8.92597C108.382 8.98477 109.358 9.05534 110.307 9.15335C110.856 9.20824 111.408 9.26704 111.949 9.33368C113.126 9.48265 114.282 9.66299 115.411 9.87469C115.678 9.92173 115.952 9.96093 116.219 10.0119C117.587 10.2902 118.912 10.6195 120.206 10.988C120.504 11.0704 120.798 11.1645 121.092 11.2546C122.213 11.5996 123.311 11.972 124.377 12.3876L124.926 12.5915C126.102 13.0697 127.25 13.6029 128.364 14.1596C128.642 14.3007 128.917 14.4536 129.191 14.5986C130.09 15.0848 130.962 15.6009 131.806 16.1472C132.065 16.3157 132.335 16.4725 132.59 16.645C134.739 18.0754 136.727 19.7328 138.521 21.5885C138.756 21.8316 138.984 22.0786 139.211 22.3256C139.854 23.0155 140.466 23.7329 141.054 24.47C141.285 24.7601 141.52 25.0423 141.74 25.3364C142.503 26.3454 143.215 27.3921 143.872 28.4726L143.963 28.6294C144.586 29.6683 145.139 30.7503 145.695 31.8636C145.86 32.2086 146.017 32.5615 146.178 32.9143C146.53 33.6984 146.856 34.5177 147.173 35.341C147.405 35.9486 147.632 36.5602 147.844 37.1913C148.13 38.046 148.397 38.9241 148.628 39.818C148.757 40.2805 148.894 40.7392 149.02 41.2097C149.357 42.57 149.659 43.9539 149.902 45.4005C149.902 45.4279 149.902 45.4514 149.902 45.4789C150.163 47.0993 150.379 48.7693 150.549 50.489C150.67 51.7984 150.721 53.096 150.741 54.4093C150.741 54.6132 150.741 54.8013 150.741 55.0287C150.741 56.2793 150.69 57.5259 150.596 58.7687C150.596 59.0392 150.549 59.3097 150.525 59.5802C150.408 60.8464 150.259 62.1127 150.039 63.3711V63.4378C149.796 64.8256 149.494 66.2068 149.134 67.5815C148.847 68.6479 148.487 69.7338 148.122 70.8236C147.969 71.2744 147.832 71.7214 147.667 72.18C147.424 72.8465 147.134 73.5286 146.883 74.2029C146.554 75.0301 146.229 75.8534 145.852 76.6884C145.292 77.9429 144.7 79.2091 144.041 80.4911C143.947 80.6714 143.841 80.8596 143.743 81.0438C143.034 82.4042 142.285 83.7881 141.462 85.1719C141.03 85.9011 140.56 86.6656 140.058 87.4535C139.897 87.7123 139.717 87.9867 139.544 88.2376C139.196 88.7825 138.839 89.3314 138.459 89.9037C138.239 90.237 138 90.578 137.769 90.9191C137.408 91.4522 137.043 91.9893 136.655 92.546C136.396 92.9145 136.126 93.2948 135.871 93.679C135.507 94.1886 135.134 94.71 134.754 95.2471C134.295 95.8822 133.821 96.533 133.335 97.2073L132.288 98.6186C131.763 99.3242 131.21 100.049 130.653 100.779C130.293 101.249 129.948 101.708 129.575 102.19C128.932 103.021 128.258 103.887 127.576 104.754C127.254 105.146 126.949 105.561 126.619 105.977C125.588 107.282 124.522 108.615 123.409 109.991L107.884 132.47L129.324 123.826L144.849 101.347C145.962 99.9711 147.024 98.6381 148.052 97.3366C148.397 96.9015 148.714 96.4898 149.051 96.0664C149.718 95.2157 150.38 94.365 151.011 93.5496C151.384 93.0674 151.733 92.6048 152.089 92.1344C152.65 91.4013 153.207 90.6721 153.732 89.9664C154.089 89.4921 154.426 89.0295 154.767 88.5669C155.257 87.9044 155.735 87.2497 156.198 86.6067L156.672 85.956C156.896 85.6463 157.092 85.3562 157.307 85.0504C157.578 84.6584 157.848 84.2898 158.091 83.9174C158.483 83.3607 158.844 82.8236 159.209 82.2905C159.436 81.9533 159.675 81.6084 159.895 81.2751C160.287 80.6989 160.636 80.1461 160.992 79.5972C161.157 79.3385 161.334 79.0719 161.494 78.8132C161.992 78.0291 162.466 77.2451 162.898 76.5237C163.227 75.9671 163.545 75.4143 163.858 74.8615C164.325 74.0304 164.752 73.215 165.179 72.3957C165.277 72.2114 165.383 72.0272 165.477 71.8429C166.05 70.7295 166.585 69.6279 167.085 68.5381C167.163 68.3695 167.218 68.2088 167.292 68.0441C167.684 67.2052 167.99 66.3819 168.319 65.5547C168.531 65.0294 168.782 64.4923 168.974 63.9866C169.029 63.8376 169.068 63.6926 169.123 63.5436C169.288 63.0888 169.429 62.638 169.578 62.1833C169.782 61.5795 170.009 60.9719 170.186 60.3721C170.327 59.8938 170.46 59.4195 170.578 58.9451C170.695 58.4707 170.825 57.9846 170.934 57.5024C171.142 56.6086 171.326 55.7069 171.483 54.8053V54.7347C171.636 53.8448 171.765 52.947 171.875 52.0493C171.914 51.6886 171.934 51.324 171.969 50.9634C171.993 50.6929 172.02 50.4224 172.04 50.1519C172.059 49.8814 172.091 49.6501 172.106 49.3992C172.161 48.5132 172.19 47.6246 172.193 46.7334C172.193 46.6275 172.193 46.5177 172.193 46.4119C172.193 46.208 172.193 46.0199 172.193 45.7925C172.193 45.1927 172.193 44.5929 172.15 43.9931C172.114 43.2913 172.067 42.5935 172.001 41.8879C171.969 41.5272 171.934 41.1665 171.895 40.8098C171.734 39.4181 171.558 38.1087 171.342 36.8346Z" fill="url(#paint3_linear_114_6291)"/>
<path d="M100.8 8.76916C115.47 8.40326 127.112 11.8113 135.726 18.9933C144.34 26.1753 149.28 36.666 150.545 50.4655C151.085 56.2071 150.606 61.999 149.13 67.5737C147.636 73.1444 145.072 78.9935 141.438 85.1641C137.804 91.3346 131.763 99.5947 123.373 109.968L107.849 132.447L161.326 131.122L163.752 157.517L68.9438 159.869L66.8896 137.524L105.975 86.497C115.512 72.8857 119.922 62.1624 119.206 54.327C118.618 47.9487 116.885 43.1502 114.043 39.8885C111.201 36.6268 107.32 35.0861 102.478 35.2077C97.6365 35.3292 94.0102 37.6383 91.4189 42.1466C88.8276 46.655 87.8553 52.2139 88.463 58.8432L56.9398 59.6272C56.1087 50.5713 57.422 42.1466 60.8797 34.3531C64.1635 26.7776 69.6296 20.3521 76.5805 15.8963C83.5822 11.3775 91.6554 9.00176 100.8 8.76916Z" fill="url(#paint4_linear_114_6291)"/>
<path d="M75.236 17.6446C82.2376 13.1337 90.3108 10.7671 99.4556 10.545C114.125 10.1843 125.769 13.5923 134.385 20.7691C143.002 27.9459 147.941 38.4366 149.2 52.2413C149.734 57.9752 149.246 63.7582 147.762 69.3221C146.269 74.8915 143.705 80.7536 140.07 86.9085C137.49 91.2679 133.722 96.6779 128.764 103.139C134.38 95.9017 138.601 89.9049 141.426 85.1483C145.06 78.9778 147.624 73.1287 149.118 67.5579C150.591 61.9933 151.07 56.2123 150.533 50.4811C149.266 36.679 144.326 26.1883 135.714 19.0089C127.103 11.8295 115.465 8.41623 100.8 8.76905C91.6529 8.99643 83.5797 11.363 76.5806 15.8687C72.1863 18.6833 68.3668 22.3072 65.3254 26.5476C68.1254 23.0632 71.4724 20.0564 75.236 17.6446Z" fill="url(#paint5_linear_114_6291)"/>
<path d="M92.1442 41.0096C91.3505 41.8967 90.6527 42.8652 90.0625 43.8989C87.7103 48.0074 86.6898 52.9979 87.0008 58.8705L88.463 58.8353C87.8541 52.2021 88.8394 46.6366 91.4189 42.1387C91.6502 41.7388 91.8972 41.3782 92.1442 41.0096Z" fill="url(#paint6_linear_114_6291)"/>
<path d="M107.849 132.431L123.028 110.454C122.687 110.877 122.366 111.285 122.017 111.716L106.492 134.195L159.969 132.866L162.235 157.537L163.752 157.501L161.326 131.106L107.849 132.431Z" fill="url(#paint7_linear_114_6291)"/>
<path d="M94.0298 334.523L50.1616 349.984L83.7116 352.391L127.58 336.93L94.0298 334.523Z" fill="url(#paint8_linear_114_6291)"/>
<path d="M79.7522 258.002C78.331 256.62 76.4653 255.786 74.4872 255.65L40.9373 253.243C42.9154 253.379 44.7811 254.213 46.2022 255.595C48.8759 258.108 50.7537 262.468 51.8592 268.705C51.9533 269.238 51.9807 269.842 52.0395 270.418C52.0866 270.912 52.1611 271.382 52.1807 271.908C52.2003 272.366 52.1807 272.884 52.1807 273.37C52.1807 274.056 52.1807 274.722 52.1336 275.455C52.0631 276.51 51.9415 277.619 51.7808 278.772C51.7455 279.031 51.7063 279.297 51.6632 279.556C51.526 280.438 51.3496 281.367 51.1614 282.3C51.0595 282.81 50.9654 283.308 50.8517 283.833C50.6243 284.849 50.3538 285.911 50.0676 286.969C49.9539 287.389 49.8638 287.789 49.7462 288.224C49.3541 289.663 48.8955 291.16 48.4015 292.705C48.2721 293.097 48.1271 293.528 48.0095 293.94C47.6044 295.163 47.1705 296.417 46.7079 297.703C46.5355 298.185 46.363 298.668 46.1826 299.158C45.5515 300.859 44.8889 302.596 44.1597 304.403L16.9607 365.909L50.5146 368.316L77.6822 306.849C78.4114 305.038 79.074 303.321 79.7051 301.6C79.8855 301.114 80.0579 300.636 80.2304 300.157C80.6956 298.851 81.1308 297.591 81.5359 296.378C81.6692 295.986 81.8142 295.555 81.9279 295.155C82.3944 293.689 82.8335 292.258 83.2177 290.886C83.2373 290.811 83.253 290.741 83.2726 290.662C83.3902 290.239 83.4804 289.847 83.5862 289.435C83.8724 288.353 84.1429 287.283 84.3703 286.264C84.4879 285.738 84.5781 285.241 84.68 284.735C84.7937 284.151 84.9348 283.559 85.0328 282.982C85.0916 282.634 85.1308 282.312 85.1818 281.975C85.2249 281.712 85.2641 281.45 85.2994 281.191C85.4523 280.105 85.5777 279.046 85.6483 278.055C85.6483 277.992 85.6483 277.937 85.6483 277.874C85.6993 277.141 85.6875 276.471 85.6953 275.789C85.6953 275.346 85.7385 274.864 85.7228 274.44C85.7228 274.401 85.7228 274.366 85.7228 274.323C85.7228 273.797 85.6287 273.331 85.5817 272.837C85.5346 272.343 85.515 271.817 85.4405 271.355C85.4405 271.276 85.4131 271.198 85.4013 271.124C84.3036 264.875 82.4258 260.515 79.7522 258.002Z" fill="url(#paint9_linear_114_6291)"/>
<path d="M16.9646 365.901L20.8339 387.745L54.3839 390.152L50.5145 368.308L16.9646 365.901Z" fill="url(#paint10_linear_114_6291)"/>
<path d="M50.6282 239.589C50.9066 239.326 51.1927 239.083 51.475 238.832C51.9102 238.44 52.3414 238.048 52.7883 237.695C53.0941 237.44 53.4116 237.201 53.7253 236.958C54.1604 236.621 54.5956 236.284 55.0386 235.966C55.3718 235.727 55.7089 235.5 56.0461 235.272C56.4891 234.975 56.936 234.677 57.3907 234.394C57.7397 234.179 58.0925 233.967 58.4492 233.763C58.9079 233.493 59.3705 233.234 59.8409 232.979C60.2055 232.787 60.5701 232.587 60.9386 232.415C61.4169 232.175 61.903 231.948 62.393 231.728C62.7655 231.56 63.1418 231.391 63.5182 231.235C64.2826 230.917 65.0471 230.607 65.8351 230.329C67.4659 229.757 69.0576 229.267 70.61 228.859C71.1432 228.722 71.645 228.647 72.1781 228.526C73.1817 228.298 74.1892 228.051 75.1575 227.894C76.4628 227.685 77.7778 227.541 79.0975 227.463C79.4895 227.44 79.8815 227.463 80.25 227.436C81.3399 227.408 82.4219 227.389 83.4647 227.463L49.9147 225.056C49.4561 225.025 48.9895 225.001 48.523 224.99C47.931 224.99 47.3077 225.013 46.7001 225.029C46.308 225.029 45.9395 225.029 45.5475 225.056C44.2773 225.135 42.9836 225.264 41.6507 225.476H41.6076C40.6393 225.632 39.6475 225.868 38.6282 226.107C38.1029 226.228 37.6011 226.303 37.0601 226.44C35.5076 226.848 33.916 227.338 32.2851 227.91C31.6736 228.13 31.0685 228.358 30.47 228.596C30.3015 228.663 30.1407 228.745 29.9721 228.816C29.5801 228.973 29.2155 229.141 28.8431 229.31C28.3531 229.533 27.8669 229.757 27.3887 229.996C27.0202 230.18 26.6516 230.388 26.291 230.564C25.8205 230.811 25.358 231.07 24.8993 231.348C24.5425 231.556 24.1897 231.768 23.8369 231.987C23.386 232.269 22.9391 232.564 22.4961 232.861C22.159 233.089 21.8218 233.316 21.4886 233.555C21.0456 233.873 20.6105 234.21 20.1753 234.547C19.8617 234.79 19.5441 235.029 19.2344 235.284C18.7914 235.649 18.3602 236.033 17.929 236.417C17.6467 236.672 17.3566 236.915 17.0783 237.178C16.6118 237.613 16.157 238.075 15.7022 238.538C15.4749 238.769 15.2396 238.989 15.0162 239.228C14.3471 239.939 13.6937 240.676 13.056 241.439C12.272 242.388 11.5193 243.372 10.8019 244.371C10.5823 244.673 10.3785 244.979 10.1668 245.285C9.65714 246.03 9.16449 246.788 8.68883 247.559C8.57122 247.755 8.43401 247.951 8.2968 248.135C8.21839 248.268 8.15567 248.405 8.07726 248.527C7.55586 249.421 7.0619 250.334 6.58754 251.271C6.50522 251.44 6.41113 251.6 6.32488 251.769C5.78388 252.867 5.27816 254 4.8038 255.148C4.76852 255.239 4.72148 255.325 4.68619 255.415C4.54114 255.768 4.41961 256.136 4.29416 256.493C4.08247 257.054 3.86685 257.61 3.66692 258.179C3.50227 258.661 3.34937 259.151 3.19256 259.641C3.00831 260.213 2.82797 260.782 2.6594 261.366C2.61235 261.523 2.56139 261.672 2.51435 261.829C2.31049 262.57 2.12232 263.322 1.93415 264.079C1.62836 265.345 1.37746 266.615 1.15009 267.881C1.12656 268.011 1.09128 268.136 1.07168 268.274C0.997195 268.701 0.946227 269.128 0.883502 269.555C0.809016 270.042 0.730609 270.528 0.667884 271.014C0.593398 271.61 0.534598 272.19 0.475793 272.798C0.42875 273.276 0.373863 273.754 0.33858 274.232C0.33858 274.338 0.315058 274.448 0.307217 274.558C0.275855 274.981 0.271935 275.405 0.252333 275.828C0.220971 276.408 0.185689 277.004 0.173928 277.569C0.162167 278.133 0.173928 278.635 0.173928 279.168C0.173928 279.701 0.173928 280.321 0.173928 280.897C0.173928 281.022 0.173928 281.148 0.173928 281.289C0.173928 281.559 0.217051 281.83 0.228812 282.1C0.271936 283.01 0.330741 283.919 0.413067 284.845C0.45227 285.284 0.495394 285.719 0.542438 286.154C0.644365 287.064 0.765892 287.978 0.907023 288.898C0.946226 289.169 0.969749 289.435 1.01287 289.706C1.056 289.976 1.10304 290.235 1.15009 290.49L34.7 292.897C34.6059 292.36 34.5393 291.827 34.457 291.294C34.3158 290.381 34.1943 289.467 34.0924 288.549C34.0453 288.113 34.0022 287.678 33.963 287.244C33.8807 286.33 33.8219 285.417 33.7788 284.5C33.7592 284.108 33.7317 283.716 33.72 283.324C33.72 282.743 33.72 282.147 33.72 281.583C33.72 281.018 33.72 280.521 33.72 279.991C33.72 279.462 33.767 278.815 33.7984 278.247C33.8297 277.678 33.8454 277.188 33.8846 276.679C33.9238 276.169 33.9748 275.714 34.0257 275.232C34.0845 274.64 34.1394 274.056 34.2139 273.456C34.2766 272.97 34.355 272.484 34.4295 271.994C34.5119 271.441 34.5981 270.888 34.6961 270.336C34.9235 269.065 35.1744 267.795 35.4802 266.529C35.6997 265.612 35.9467 264.714 36.2054 263.82C36.374 263.236 36.5583 262.644 36.7425 262.083C36.8954 261.597 37.0483 261.107 37.213 260.629C37.4129 260.06 37.6285 259.504 37.8402 258.943C38.0127 258.492 38.1813 258.042 38.3655 257.599C38.8399 256.45 39.3417 255.321 39.8827 254.219C39.9689 254.047 40.063 253.882 40.1493 253.714C40.6197 252.783 41.115 251.868 41.6351 250.969C41.8271 250.64 42.0271 250.315 42.2309 249.989C42.7014 249.205 43.1953 248.46 43.705 247.715C43.9167 247.41 44.1205 247.104 44.3401 246.802C45.0575 245.802 45.8023 244.818 46.5942 243.87C47.2319 243.104 47.8853 242.367 48.5544 241.659C48.7818 241.419 49.0131 241.2 49.2404 240.969C49.707 240.486 50.146 240.024 50.6282 239.589Z" fill="url(#paint11_linear_114_6291)"/>
<path d="M65.8271 230.333C77.8493 226.094 87.7599 226.432 95.5587 231.348C103.357 236.264 108.446 245.473 110.824 258.975C111.833 264.751 112.002 270.642 111.326 276.467C110.644 282.441 109.109 288.994 106.72 296.123C104.331 303.253 100.185 313.132 94.2806 325.761L83.6958 352.391L127.564 336.93L132.135 362.741L54.368 390.152L50.4987 368.308L77.6664 306.841C84.1846 290.677 86.7602 278.767 85.3933 271.112C84.2878 264.875 82.41 260.527 79.7363 258.002C77.0627 255.478 73.75 254.96 69.7787 256.364C65.8075 257.767 63.0515 261.037 61.3579 266.239C59.6644 271.441 59.3978 277.271 60.5739 283.755L34.6999 292.869C33.1271 284.12 33.3941 275.138 35.484 266.498C37.5748 257.787 41.2795 250.238 46.598 243.85C51.9166 237.463 58.3262 232.957 65.8271 230.333Z" fill="url(#paint12_linear_114_6291)"/>
<path d="M85.272 352.917L127.756 337.941L127.58 336.93L85.7699 351.666L85.272 352.917Z" fill="url(#paint13_linear_114_6291)"/>
<path d="M52.0747 368.833L79.2463 307.367C85.7618 291.202 88.3362 279.292 86.9693 271.637C85.8638 265.396 83.9859 261.052 81.3123 258.528C80.2022 257.459 78.8228 256.713 77.3214 256.368C78.2167 256.774 79.0381 257.326 79.752 258.002C82.4257 260.515 84.3035 264.875 85.409 271.112C86.7654 278.78 84.1898 290.69 77.6821 306.841L50.5144 368.308L54.3837 390.152L55.7637 389.662L52.0747 368.833Z" fill="url(#paint14_linear_114_6291)"/>
<path d="M37.0483 267.023C39.1392 258.312 42.8438 250.763 48.1624 244.375C53.4809 237.988 59.8919 233.482 67.3954 230.858C76.2474 227.743 83.9482 227.109 90.4977 228.957C83.6137 226.53 75.4046 226.961 65.8351 230.333C58.329 232.98 51.9233 237.486 46.6178 243.85C41.3123 250.214 37.6076 257.763 35.5037 266.498C33.4139 275.138 33.1469 284.12 34.7197 292.87L36.1271 292.372C34.7372 283.945 35.0505 275.326 37.0483 267.023Z" fill="url(#paint15_linear_114_6291)"/>
<path style="mix-blend-mode:multiply" d="M156.466 301.143C184.123 273.486 184.123 228.645 156.466 200.988C128.809 173.331 83.9679 173.331 56.3109 200.988C28.6538 228.645 28.6539 273.486 56.3109 301.143C83.9679 328.8 128.809 328.8 156.466 301.143Z" fill="url(#paint16_radial_114_6291)"/>
<path style="mix-blend-mode:multiply" d="M231.697 151.239C259.354 123.582 259.354 78.7414 231.697 51.0844C204.04 23.4273 159.199 23.4274 131.542 51.0844C103.885 78.7414 103.885 123.582 131.542 151.239C159.199 178.896 204.04 178.896 231.697 151.239Z" fill="url(#paint17_radial_114_6291)"/>
<path d="M256.482 267.774C261.306 220.282 226.716 177.871 179.224 173.047C131.732 168.223 89.3211 202.812 84.497 250.304C79.6729 297.797 114.262 340.207 161.755 345.031C209.247 349.856 251.658 315.266 256.482 267.774Z" fill="url(#paint18_radial_114_6291)"/>
<path style="mix-blend-mode:color-dodge" d="M231.091 213.723C249.372 235.515 251.43 263.902 235.682 277.102C219.934 290.302 192.351 283.351 174.067 261.554C155.782 239.757 153.728 211.374 169.472 198.175C185.216 184.975 212.803 191.926 231.091 213.723Z" fill="url(#paint19_radial_114_6291)"/>
<path style="mix-blend-mode:color-dodge" d="M130.971 197.822C146.229 190.103 163.117 192.784 168.692 203.808C174.267 214.832 166.418 230.023 151.16 237.742C135.903 245.461 119.014 242.78 113.435 231.756C107.857 220.732 115.709 205.541 130.971 197.822Z" fill="url(#paint20_radial_114_6291)"/>
<path d="M170.389 345.413C200.38 344.069 223.706 332.476 239.747 310.973C238.07 313.059 235.827 315.858 234.051 317.857C216.139 336.048 196.506 344.547 170.389 345.413Z" fill="url(#paint21_linear_114_6291)"/>
<path d="M170.389 345.413C231.903 340.187 272.043 279.489 249.924 225.142C251.885 230.27 254.347 236.656 255.738 244.924C256.001 247.01 256.432 249.785 256.609 251.883C258.961 307.916 214.622 343.441 170.389 345.413Z" fill="url(#paint22_linear_114_6291)"/>
<path d="M170.389 345.413C237.329 336.397 280.915 237.299 221.785 189.958C216.147 185.445 210.808 182.705 206.919 180.702C208.91 181.717 211.576 183.054 213.521 184.144C215.453 185.367 218.068 186.947 219.95 188.256C288.281 240.702 237.478 336.624 173.937 345.068C172.879 345.209 171.456 345.307 170.409 345.413" fill="url(#paint23_linear_114_6291)"/>
<path d="M170.389 345.413C230.488 333.013 267.613 218.646 207.483 182.019C199.584 177.209 192.629 175.511 188.47 174.5L190.085 174.861C274.179 198.712 238.595 313.212 185.283 340.509C178.054 344.21 172.683 345.053 170.385 345.413" fill="url(#paint24_linear_114_6291)"/>
<path d="M170.389 345.413C203.32 331.535 249.497 202.252 191.853 176.323C187.102 174.186 182.836 173.551 180.045 173.132L181.355 173.289C254.558 186.684 219.887 313.745 177.434 342.069C175.286 343.559 172.909 344.688 170.397 345.413" fill="url(#paint25_linear_114_6291)"/>
<path d="M170.389 345.413C170.723 342.622 171.765 338.608 175.988 323.942C184.322 294.99 195.738 255.337 196.793 219.897C197.969 180.133 183.989 173.289 175.545 172.748L176.776 172.83C234.855 181.4 184.769 328.678 170.389 345.413Z" fill="url(#paint26_linear_114_6291)"/>
<path d="M170.39 345.413C156.19 337.381 163.49 294.057 170.55 252.138C178.548 204.678 183.828 173.339 172.793 172.626H173.122C186.816 175.209 180.72 210.798 171.487 264.671C165.76 298.107 158.633 339.721 170.39 345.405" fill="url(#paint27_linear_114_6291)"/>
<path d="M170.39 345.413C107.665 330.798 157.092 181.356 168.673 173.026C168.962 172.811 169.295 172.664 169.649 172.595H170.625C165.254 194.156 157.508 215.087 153.156 236.931C149.357 255.987 147.08 276.134 147.056 290.835C147.001 333.884 161.651 343.508 170.39 345.413Z" fill="url(#paint28_linear_114_6291)"/>
<path d="M170.39 345.413C94.4925 334.723 112.996 209.461 154.936 177.691C161.142 172.987 165.336 172.751 166.716 172.669L167.363 172.638H167.783C133.974 178.126 100.945 303.901 151.65 338.521C157.224 342.356 163.672 344.727 170.401 345.417" fill="url(#paint29_linear_114_6291)"/>
<path d="M170.39 345.413C87.6163 337.608 87.5575 225.001 138.772 183.842C150.118 174.723 158.55 173.555 163.588 172.865H163.741L164.046 172.842C107.429 180.831 77.8704 292.854 136.996 334.06C150.533 343.492 162.478 344.645 170.378 345.429" fill="url(#paint30_linear_114_6291)"/>
<path d="M170.39 345.413C85.8953 340.987 64.9335 242.874 119.304 192.745C127.055 185.602 139.901 176.488 157.092 173.618L158.111 173.465L159.617 173.265C88.3455 185.935 68.3677 293.52 129.932 333.155C147.409 344.406 164.105 345.139 170.39 345.413Z" fill="url(#paint31_linear_114_6291)"/>
<path d="M131.273 336.161C115.83 328.354 103.076 316.106 94.6492 300.992C68.2813 248.205 95.7077 197.575 137.463 179.118C139.564 178.334 142.351 177.256 144.48 176.566C145.688 176.213 147.287 175.727 148.502 175.39C74.0167 198.371 62.9066 298.879 130.759 335.879C130.912 335.965 131.12 336.067 131.273 336.146" fill="url(#paint32_linear_114_6291)"/>
<path d="M170.499 159.309C168.862 159.309 167.261 158.823 165.899 157.913C164.538 157.004 163.476 155.71 162.85 154.198C162.223 152.685 162.059 151.02 162.379 149.414C162.698 147.808 163.487 146.332 164.645 145.174C165.802 144.017 167.278 143.228 168.884 142.908C170.49 142.589 172.155 142.753 173.668 143.38C175.181 144.006 176.474 145.068 177.383 146.429C178.293 147.791 178.779 149.392 178.779 151.029C178.777 153.224 177.904 155.329 176.351 156.881C174.799 158.434 172.694 159.307 170.499 159.309ZM170.499 145.443C169.394 145.443 168.314 145.77 167.396 146.384C166.477 146.998 165.761 147.87 165.338 148.891C164.915 149.912 164.805 151.035 165.02 152.119C165.236 153.203 165.768 154.198 166.549 154.979C167.33 155.761 168.326 156.293 169.409 156.508C170.493 156.724 171.616 156.613 172.637 156.19C173.658 155.767 174.53 155.051 175.144 154.133C175.758 153.214 176.086 152.134 176.086 151.029C176.088 150.294 175.945 149.566 175.665 148.886C175.385 148.206 174.974 147.588 174.455 147.067C173.936 146.547 173.32 146.133 172.641 145.851C171.962 145.569 171.234 145.424 170.499 145.423V145.443Z" fill="url(#paint33_linear_114_6291)"/>
<path d="M188.991 174.739H151.98V165.189C151.98 163.78 152.257 162.384 152.797 161.082C153.336 159.78 154.127 158.597 155.124 157.601C156.121 156.604 157.304 155.814 158.606 155.275C159.908 154.736 161.304 154.459 162.714 154.459H178.261C179.671 154.459 181.066 154.736 182.368 155.275C183.67 155.814 184.853 156.604 185.85 157.601C186.846 158.597 187.637 159.78 188.176 161.082C188.715 162.384 188.992 163.78 188.991 165.189V174.739Z" fill="url(#paint34_linear_114_6291)"/>
<path style="mix-blend-mode:multiply" d="M299.256 300.586C326.913 272.929 326.913 228.088 299.256 200.431C271.599 172.774 226.758 172.774 199.101 200.431C171.444 228.088 171.444 272.929 199.101 300.586C226.758 328.243 271.599 328.243 299.256 300.586Z" fill="url(#paint35_radial_114_6291)"/>
<path style="mix-blend-mode:multiply" d="M214.5 401.574C242.157 373.917 242.157 329.077 214.5 301.419C186.843 273.762 142.002 273.762 114.345 301.419C86.6875 329.076 86.6876 373.917 114.345 401.574C142.002 429.231 186.843 429.231 214.5 401.574Z" fill="url(#paint36_radial_114_6291)"/>
<path d="M259.882 127.946C257.977 126.24 255.476 125.249 252.379 124.975C251.727 124.917 251.073 124.895 250.418 124.908C250.207 124.908 250.026 124.939 249.803 124.951C249.384 124.975 248.968 125.002 248.564 125.061C248.329 125.092 248.098 125.147 247.866 125.19C247.506 125.261 247.149 125.328 246.804 125.426C246.565 125.488 246.33 125.571 246.098 125.649C245.867 125.727 245.663 125.771 245.451 125.853C245.334 125.9 245.224 125.963 245.11 126.01C244.91 126.096 244.718 126.19 244.515 126.284C244.311 126.378 244.193 126.421 244.036 126.504C243.879 126.586 243.644 126.743 243.429 126.86C243.323 126.927 243.217 126.982 243.111 127.053L242.942 127.151C242.621 127.362 242.303 127.59 241.994 127.829C241.923 127.884 241.857 127.946 241.79 128.005C241.723 128.064 241.621 128.142 241.539 128.213C241.457 128.283 241.253 128.448 241.112 128.574C240.822 128.84 240.535 129.119 240.257 129.413C239.967 129.722 239.681 130.048 239.402 130.385C239.246 130.581 239.089 130.777 238.936 130.981C238.783 131.185 238.607 131.42 238.446 131.651C238.285 131.882 238.179 132.067 238.054 132.27C237.87 132.545 237.689 132.819 237.509 133.113C237.442 133.227 237.368 133.325 237.297 133.439C237.227 133.552 237.109 133.807 237.011 133.976C236.721 134.493 236.435 135.026 236.156 135.587C236.07 135.752 235.98 135.893 235.898 136.065C235.815 136.238 235.725 136.457 235.639 136.645C235.495 136.962 235.35 137.287 235.204 137.622C235.008 138.076 234.812 138.543 234.624 139.021C234.486 139.366 234.353 139.715 234.232 140.072C234.165 140.248 234.094 140.409 234.028 140.589C233.91 140.919 233.8 141.279 233.683 141.62C233.565 141.961 233.428 142.357 233.291 142.745C233.11 143.31 232.938 143.898 232.765 144.486C232.652 144.878 232.538 145.235 232.428 145.627C232.244 146.297 232.068 146.995 231.891 147.697C231.805 148.042 231.715 148.371 231.628 148.724C231.374 149.794 231.123 150.892 230.888 152.033L224.078 188.586C223.847 189.828 223.643 191.024 223.462 192.192C223.404 192.584 223.357 192.929 223.306 193.302C223.192 194.086 223.086 194.846 222.996 195.587C222.945 196.003 222.906 196.403 222.863 196.806C222.788 197.481 222.725 198.143 222.675 198.79C222.643 199.182 222.616 199.574 222.592 199.966C222.553 200.601 222.526 201.217 222.506 201.824C222.506 202.166 222.482 202.514 222.479 202.852C222.479 203.518 222.479 204.153 222.479 204.78C222.479 205.016 222.479 205.263 222.479 205.494C222.518 206.333 222.58 207.136 222.671 207.897C222.69 208.062 222.718 208.207 222.741 208.367C222.808 208.865 222.871 209.363 222.961 209.83C222.961 209.896 222.996 209.955 223.008 210.022C223.159 210.817 223.358 211.602 223.604 212.374C223.662 212.55 223.721 212.723 223.784 212.895C223.847 213.068 223.941 213.252 224.019 213.432C224.133 213.711 224.243 213.989 224.372 214.252C224.411 214.334 224.439 214.424 224.478 214.503C224.607 214.758 224.756 214.993 224.897 215.232C224.956 215.338 225.011 215.444 225.074 215.546C225.093 215.574 225.11 215.604 225.125 215.636C225.325 215.945 225.54 216.247 225.764 216.533L225.897 216.686L226.085 216.906C226.195 217.031 226.297 217.165 226.411 217.298C226.614 217.513 226.826 217.721 227.046 217.917L243.742 232.873C243.401 232.563 243.08 232.23 242.782 231.877L242.594 231.662C242.298 231.296 242.023 230.914 241.77 230.517C241.708 230.419 241.653 230.309 241.594 230.207C241.406 229.89 241.229 229.564 241.069 229.223C240.939 228.965 240.829 228.686 240.716 228.408C240.571 228.059 240.422 227.718 240.3 227.346C240.053 226.575 239.854 225.789 239.704 224.993C239.598 224.468 239.512 223.911 239.438 223.343C239.414 223.182 239.383 223.033 239.367 222.873C239.276 222.109 239.212 221.307 239.175 220.465C239.175 220.238 239.175 219.987 239.175 219.752C239.155 219.125 239.148 218.49 239.155 217.823C239.155 217.49 239.155 217.137 239.183 216.792C239.183 216.188 239.23 215.573 239.269 214.942C239.293 214.55 239.32 214.158 239.351 213.766C239.402 213.119 239.465 212.46 239.54 211.786C239.579 211.394 239.622 210.978 239.673 210.563C239.763 209.822 239.869 209.053 239.979 208.277C240.034 207.885 240.081 207.548 240.139 207.168C240.32 205.992 240.532 204.816 240.755 203.561L247.565 167.008C247.8 165.867 248.047 164.77 248.305 163.7C248.392 163.343 248.482 163.01 248.572 162.661C248.745 161.967 248.921 161.273 249.105 160.606C249.215 160.214 249.333 159.822 249.446 159.43C249.615 158.846 249.787 158.254 249.968 157.705C250.093 157.313 250.222 156.949 250.36 156.572C250.54 156.047 250.72 155.53 250.909 155.032C251.042 154.671 251.179 154.322 251.301 153.977C251.489 153.499 251.693 153.032 251.877 152.582C252.018 152.248 252.163 151.923 252.312 151.601C252.461 151.28 252.653 150.892 252.829 150.543C253.108 149.982 253.394 149.449 253.684 148.936C253.849 148.642 254.013 148.344 254.182 148.069C254.351 147.795 254.543 147.501 254.727 147.226C255.017 146.783 255.311 146.336 255.617 145.937C256.027 145.389 256.468 144.866 256.938 144.368C257.344 143.945 257.773 143.545 258.224 143.169C258.306 143.098 258.388 143.024 258.475 142.957C258.895 142.613 259.336 142.295 259.796 142.005L260.113 141.816C260.466 141.605 260.831 141.424 261.199 141.236C261.395 141.142 261.591 141.048 261.795 140.962C262.117 140.828 262.45 140.715 262.779 140.601C263.014 140.523 263.246 140.44 263.489 140.378C263.834 140.284 264.191 140.213 264.547 140.142C264.782 140.099 265.014 140.044 265.249 140.013C265.641 139.954 266.068 139.931 266.488 139.907C266.692 139.907 266.88 139.868 267.103 139.864C267.751 139.848 268.399 139.869 269.044 139.927C272.141 140.201 274.642 141.192 276.547 142.898L259.882 127.946Z" fill="url(#paint37_linear_114_6291)"/>
<path d="M312.195 172.936C312.253 172.504 312.316 172.069 312.367 171.642C312.606 169.682 312.798 167.722 312.92 165.848C312.939 165.526 312.947 165.213 312.963 164.891C313.057 163.166 313.1 161.481 313.092 159.834C313.092 159.56 313.092 159.273 313.092 159.003C313.065 157.231 312.967 155.518 312.818 153.844C312.787 153.475 312.747 153.115 312.708 152.75C312.532 151.096 312.316 149.469 312.026 147.908C312.024 147.886 312.024 147.864 312.026 147.842C311.999 147.712 311.963 147.591 311.936 147.45C311.646 145.968 311.289 144.537 310.881 143.137C310.748 142.663 310.591 142.208 310.442 141.746C310.262 141.189 310.109 140.609 309.909 140.068C309.772 139.676 309.588 139.354 309.443 138.986C309.117 138.167 308.768 137.367 308.4 136.579C308.215 136.187 308.07 135.756 307.874 135.367C307.533 134.693 307.173 134.031 306.8 133.384C306.479 132.827 306.149 132.286 305.808 131.753C305.726 131.627 305.632 131.518 305.55 131.396C305.115 130.734 304.656 130.099 304.185 129.475C304.04 129.287 303.915 129.083 303.77 128.895C303.731 128.844 303.688 128.801 303.648 128.75C303.076 128.033 302.472 127.343 301.857 126.676C301.794 126.609 301.739 126.531 301.676 126.464C301.018 125.771 300.34 125.108 299.63 124.473L282.906 109.521C283.614 110.156 284.296 110.82 284.952 111.512C285.019 111.583 285.082 111.665 285.148 111.74C285.768 112.406 286.368 113.092 286.94 113.814C287.124 114.045 287.293 114.296 287.473 114.535C287.944 115.158 288.406 115.793 288.841 116.456C289.276 117.118 289.696 117.757 290.092 118.443C290.684 119.467 291.186 120.557 291.691 121.642C292.06 122.427 292.409 123.211 292.734 124.046C293.091 124.947 293.428 125.865 293.734 126.79C293.883 127.252 294.04 127.711 294.177 128.182C294.569 129.577 294.933 131.008 295.227 132.494C295.255 132.623 295.29 132.745 295.318 132.886C295.62 134.454 295.839 136.112 296.015 137.79C296.055 138.155 296.094 138.519 296.125 138.888C296.274 140.562 296.372 142.275 296.4 144.043C296.4 144.317 296.4 144.604 296.4 144.882C296.4 146.523 296.358 148.206 296.274 149.931C296.255 150.253 296.247 150.566 296.227 150.892C296.106 152.774 295.914 154.71 295.674 156.686C295.623 157.113 295.561 157.545 295.502 157.98C295.228 160.03 294.914 162.112 294.514 164.252L289.676 190.31C289.422 191.683 289.108 192.976 288.818 194.305C288.465 195.905 288.096 197.485 287.697 199.01C287.446 199.962 287.179 200.899 286.913 201.828C286.489 203.291 286.034 204.718 285.56 206.113C285.199 207.164 284.847 208.222 284.462 209.249C284.286 209.712 284.11 210.171 283.925 210.625C283.235 212.354 282.514 214.044 281.738 215.655C280.847 217.485 279.902 219.253 278.903 220.959C277.974 222.528 276.994 224.025 275.971 225.464C275.74 225.789 275.493 226.083 275.261 226.401C274.477 227.459 273.662 228.49 272.823 229.474C272.505 229.866 272.176 230.215 271.851 230.58C270.82 231.721 269.773 232.842 268.667 233.877C267.44 235.022 266.174 236.076 264.877 237.068C264.575 237.303 264.257 237.511 263.947 237.734C263.009 238.422 262.054 239.067 261.082 239.671C260.58 239.981 260.07 240.279 259.561 240.569C258.777 241.012 257.992 241.416 257.208 241.811C256.424 242.207 255.554 242.596 254.711 242.952C253.633 243.403 252.555 243.854 251.442 244.222C251.324 244.258 251.214 244.305 251.101 244.34C249.658 244.807 248.18 245.183 246.675 245.516C246.432 245.571 246.188 245.63 245.941 245.677C244.473 245.972 242.972 246.201 241.441 246.363L240.606 246.441C239.038 246.586 237.47 246.669 235.866 246.677C235.639 246.677 235.408 246.677 235.18 246.677C233.479 246.677 231.75 246.602 229.982 246.445C219.183 245.489 210.558 242.121 204.108 236.343L220.804 251.299C227.252 257.075 235.877 260.442 246.678 261.401C248.447 261.558 250.175 261.625 251.877 261.633H252.563C254.174 261.633 255.75 261.538 257.302 261.397L258.138 261.315C259.666 261.15 261.168 260.923 262.638 260.633L263.371 260.472C264.877 260.147 266.354 259.766 267.797 259.296C267.911 259.261 268.021 259.218 268.134 259.178C268.871 258.935 269.604 258.684 270.326 258.394C270.718 258.249 271.043 258.053 271.408 257.896C272.255 257.544 273.082 257.159 273.905 256.756C274.297 256.56 274.72 256.411 275.116 256.203C275.512 255.995 275.9 255.736 276.292 255.517C276.802 255.223 277.312 254.925 277.814 254.615C278.135 254.415 278.472 254.247 278.79 254.035C279.433 253.612 280.052 253.137 280.683 252.679C280.989 252.455 281.307 252.247 281.608 252.016C281.722 251.93 281.84 251.855 281.949 251.769C282.95 250.985 283.928 250.16 284.882 249.295L285.399 248.821C286.152 248.115 286.893 247.382 287.61 246.626C287.947 246.273 288.257 245.885 288.583 245.524C288.908 245.163 289.237 244.795 289.555 244.422C289.79 244.148 290.037 243.897 290.264 243.615C290.86 242.89 291.421 242.113 291.989 241.345C292.225 241.031 292.472 240.733 292.703 240.412C292.766 240.322 292.836 240.239 292.899 240.153C293.84 238.812 294.741 237.416 295.604 235.962L295.631 235.904C296.632 234.213 297.578 232.445 298.47 230.599C298.468 230.59 298.468 230.581 298.47 230.572C299.254 228.969 299.955 227.287 300.641 225.57C300.826 225.119 301.002 224.656 301.179 224.194C301.355 223.731 301.571 223.198 301.763 222.684C301.955 222.171 302.096 221.595 302.272 221.069C302.751 219.674 303.205 218.25 303.629 216.784C303.899 215.859 304.166 214.922 304.413 213.966C304.805 212.433 305.197 210.857 305.534 209.261C305.675 208.618 305.852 208.022 305.985 207.364C306.118 206.705 306.259 205.972 306.377 205.266L311.23 179.216C311.607 177.068 311.92 174.99 312.195 172.936Z" fill="url(#paint38_linear_114_6291)"/>
<path d="M290.092 118.44C296.626 129.738 298.099 145.011 294.51 164.26L289.677 190.31C286.078 209.617 279.073 224.137 268.664 233.873C258.254 243.608 245.354 247.79 229.962 246.418C214.454 245.04 203.434 238.7 196.903 227.397C190.371 216.093 188.888 200.856 192.453 181.686L197.322 155.557C200.926 136.217 207.932 121.688 218.339 111.971C228.746 102.254 241.683 98.0722 257.15 99.4261C272.585 100.811 283.566 107.149 290.092 118.44ZM256.448 192.443L263.018 157.086C264.937 146.802 265.058 139.008 263.383 133.705C261.708 128.402 258.032 125.491 252.355 124.971C246.812 124.477 242.335 126.48 238.924 130.981C235.514 135.481 232.83 142.498 230.872 152.033L224.062 188.585C222.076 199.254 221.93 207.176 223.623 212.35C225.317 217.525 229.006 220.37 234.69 220.885C240.179 221.371 244.687 219.317 248.188 214.734C251.689 210.151 254.46 202.722 256.421 192.443" fill="url(#paint39_linear_114_6291)"/>
<path d="M290.092 118.44C283.574 107.141 272.589 100.81 257.138 99.4457C243.401 98.2304 231.659 101.405 221.91 108.968C231.366 102.213 242.594 99.3752 255.625 100.536C271.073 101.905 282.061 108.235 288.587 119.526C295.113 130.816 296.587 146.089 293.009 165.346L288.155 191.396C284.562 210.703 277.558 225.223 267.143 234.959C265.986 236.041 264.79 237.029 263.567 237.974C265.353 236.718 267.055 235.348 268.664 233.873C279.047 224.151 286.052 209.63 289.676 190.311L294.53 164.26C298.105 145.017 296.626 129.743 290.092 118.44Z" fill="url(#paint40_linear_114_6291)"/>
<path d="M230.872 152.033C232.853 142.493 235.538 135.476 238.928 130.981C239.722 129.919 240.636 128.953 241.653 128.103C240.016 129.157 238.584 130.5 237.427 132.067C234.029 136.559 231.344 143.577 229.37 153.119L222.561 189.671C220.572 200.337 220.427 208.259 222.126 213.436C223.825 218.614 227.512 221.459 233.189 221.971C237.274 222.332 240.815 221.286 243.813 218.835C241.155 220.507 238.114 221.192 234.69 220.889C229.009 220.384 225.32 217.54 223.623 212.354C221.927 207.169 222.074 199.247 224.062 188.589L230.872 152.033Z" fill="url(#paint41_linear_114_6291)"/>
<path d="M165.097 388.799L199.329 384.303L234.643 394.401L200.407 398.898L165.097 388.799Z" fill="url(#paint42_linear_114_6291)"/>
<path d="M223.439 434.396L257.675 429.9L251.297 460.282L217.061 464.775L223.439 434.396Z" fill="url(#paint43_linear_114_6291)"/>
<path d="M240.861 318.226L275.093 313.733L199.329 384.303L165.097 388.799L240.861 318.226Z" fill="url(#paint44_linear_114_6291)"/>
<path d="M206.096 371.813L240.328 367.32L269.087 375.545L234.855 380.037L206.096 371.813Z" fill="url(#paint45_linear_114_6291)"/>
<path d="M234.855 380.037L269.087 375.545L263.403 402.626L229.167 407.123L234.855 380.037Z" fill="url(#paint46_linear_114_6291)"/>
<path d="M250.575 413.242L284.808 408.75L279.084 436.023L244.848 440.516L250.575 413.242Z" fill="url(#paint47_linear_114_6291)"/>
<path d="M229.167 407.123L263.403 402.626L284.807 408.75L250.575 413.242L229.167 407.123Z" fill="url(#paint48_linear_114_6291)"/>
<path d="M208.91 309.088L243.146 304.595L275.093 313.733L240.861 318.226L208.91 309.088Z" fill="url(#paint49_linear_114_6291)"/>
<path d="M229.167 407.123L250.575 413.242L244.848 440.516L223.439 434.396L217.061 464.775L187.376 456.287L193.755 425.905L122.938 405.653L127.67 383.123L208.91 309.088L240.861 318.226L165.097 388.799L200.407 398.898L206.096 371.813L234.855 380.037L229.167 407.123Z" fill="url(#paint50_linear_114_6291)"/>
<g style="mix-blend-mode:screen">
<path d="M239.826 318.841L164.062 389.415L199.372 399.513L199.553 398.655L165.097 388.799L240.861 318.226L208.91 309.088L208.15 309.786L239.826 318.841Z" fill="url(#paint51_linear_114_6291)"/>
<path d="M205.915 372.675L233.82 380.653L228.131 407.738L249.54 413.858L243.993 440.273L244.848 440.516L250.575 413.242L229.166 407.123L234.855 380.037L206.095 371.813L205.915 372.675Z" fill="url(#paint52_linear_114_6291)"/>
<path d="M222.404 435.012L216.21 464.532L217.061 464.775L223.259 435.255L222.404 435.012Z" fill="url(#paint53_linear_114_6291)"/>
</g>
</g>
<defs>
<linearGradient id="paint0_linear_114_6291" x1="110.486" y1="82.1145" x2="101.239" y2="27.3227" gradientUnits="userSpaceOnUse">
<stop stop-color="#C3852F"/>
<stop offset="0.07" stop-color="#DBAD50"/>
<stop offset="0.13" stop-color="#EECC69"/>
<stop offset="0.18" stop-color="#F9DF78"/>
<stop offset="0.22" stop-color="#FDE67E"/>
<stop offset="0.31" stop-color="#FAE27B"/>
<stop offset="0.39" stop-color="#F2D772"/>
<stop offset="0.48" stop-color="#E4C362"/>
<stop offset="0.56" stop-color="#D1A84D"/>
<stop offset="0.61" stop-color="#C1933C"/>
<stop offset="0.62" stop-color="#BE8F39"/>
<stop offset="0.71" stop-color="#A26B1F"/>
<stop offset="0.79" stop-color="#915410"/>
<stop offset="0.83" stop-color="#8B4C0A"/>
<stop offset="0.9" stop-color="#9A5F09"/>
<stop offset="1" stop-color="#AA7307"/>
</linearGradient>
<linearGradient id="paint1_linear_114_6291" x1="216.896" y1="94.7128" x2="68.5772" y2="248.571" gradientUnits="userSpaceOnUse">
<stop stop-color="#C3852F"/>
<stop offset="0.07" stop-color="#DBAD50"/>
<stop offset="0.13" stop-color="#EECC69"/>
<stop offset="0.18" stop-color="#F9DF78"/>
<stop offset="0.22" stop-color="#FDE67E"/>
<stop offset="0.31" stop-color="#FAE27B"/>
<stop offset="0.39" stop-color="#F2D772"/>
<stop offset="0.48" stop-color="#E4C362"/>
<stop offset="0.56" stop-color="#D1A84D"/>
<stop offset="0.61" stop-color="#C1933C"/>
<stop offset="0.62" stop-color="#BE8F39"/>
<stop offset="0.71" stop-color="#A26B1F"/>
<stop offset="0.79" stop-color="#915410"/>
<stop offset="0.83" stop-color="#8B4C0A"/>
<stop offset="0.9" stop-color="#9A5F09"/>
<stop offset="1" stop-color="#AA7307"/>
</linearGradient>
<linearGradient id="paint2_linear_114_6291" x1="243.342" y1="198.975" x2="65.0934" y2="68.9747" gradientUnits="userSpaceOnUse">
<stop stop-color="#C3852F"/>
<stop offset="0.07" stop-color="#DBAD50"/>
<stop offset="0.13" stop-color="#EECC69"/>
<stop offset="0.18" stop-color="#F9DF78"/>
<stop offset="0.22" stop-color="#FDE67E"/>
<stop offset="0.31" stop-color="#FAE27B"/>
<stop offset="0.39" stop-color="#F2D772"/>
<stop offset="0.48" stop-color="#E4C362"/>
<stop offset="0.56" stop-color="#D1A84D"/>
<stop offset="0.61" stop-color="#C1933C"/>
<stop offset="0.62" stop-color="#BE8F39"/>
<stop offset="0.71" stop-color="#A26B1F"/>
<stop offset="0.79" stop-color="#915410"/>
<stop offset="0.83" stop-color="#8B4C0A"/>
<stop offset="0.9" stop-color="#9A5F09"/>
<stop offset="1" stop-color="#AA7307"/>
</linearGradient>
<linearGradient id="paint3_linear_114_6291" x1="108.719" y1="11.5985" x2="155.495" y2="119.266" gradientUnits="userSpaceOnUse">
<stop stop-color="#C3852F"/>
<stop offset="0.07" stop-color="#DBAD50"/>
<stop offset="0.13" stop-color="#EECC69"/>
<stop offset="0.18" stop-color="#F9DF78"/>
<stop offset="0.22" stop-color="#FDE67E"/>
<stop offset="0.31" stop-color="#FAE27B"/>
<stop offset="0.39" stop-color="#F2D772"/>
<stop offset="0.48" stop-color="#E4C362"/>
<stop offset="0.56" stop-color="#D1A84D"/>
<stop offset="0.61" stop-color="#C1933C"/>
<stop offset="0.62" stop-color="#BE8F39"/>
<stop offset="0.71" stop-color="#A26B1F"/>
<stop offset="0.79" stop-color="#915410"/>
<stop offset="0.83" stop-color="#8B4C0A"/>
<stop offset="0.9" stop-color="#9A5F09"/>
<stop offset="1" stop-color="#AA7307"/>
</linearGradient>
<linearGradient id="paint4_linear_114_6291" x1="244.551" y1="-18.1174" x2="-37.9816" y2="219.439" gradientUnits="userSpaceOnUse">
<stop stop-color="#C3852F"/>
<stop offset="0.07" stop-color="#DBAD50"/>
<stop offset="0.13" stop-color="#EECC69"/>
<stop offset="0.18" stop-color="#F9DF78"/>
<stop offset="0.22" stop-color="#FDE67E"/>
<stop offset="0.31" stop-color="#FAE27B"/>
<stop offset="0.39" stop-color="#F2D772"/>
<stop offset="0.48" stop-color="#E4C362"/>
<stop offset="0.56" stop-color="#D1A84D"/>
<stop offset="0.61" stop-color="#C1933C"/>
<stop offset="0.62" stop-color="#BE8F39"/>
<stop offset="0.71" stop-color="#A26B1F"/>
<stop offset="0.79" stop-color="#915410"/>
<stop offset="0.83" stop-color="#8B4C0A"/>
<stop offset="0.9" stop-color="#9A5F09"/>
<stop offset="1" stop-color="#AA7307"/>
</linearGradient>
<linearGradient id="paint5_linear_114_6291" x1="176.747" y1="-2.98952" x2="57.5463" y2="97.236" gradientUnits="userSpaceOnUse">
<stop stop-color="#EABD54"/>
<stop offset="0.06" stop-color="#F0CB66"/>
<stop offset="0.18" stop-color="#FBE485"/>
<stop offset="0.25" stop-color="#FFED91"/>
<stop offset="0.43" stop-color="#FEEC8F"/>
<stop offset="0.5" stop-color="#FCE688"/>
<stop offset="0.54" stop-color="#F8DD7D"/>
<stop offset="0.58" stop-color="#F2D06C"/>
<stop offset="0.61" stop-color="#EABD54"/>
<stop offset="0.66" stop-color="#D9AA45"/>
<stop offset="0.81" stop-color="#9F6D13"/>
<stop offset="0.88" stop-color="#895500"/>
<stop offset="0.89" stop-color="#936009"/>
<stop offset="0.94" stop-color="#C29231"/>
<stop offset="0.98" stop-color="#DFB14B"/>
<stop offset="1" stop-color="#EABD54"/>
</linearGradient>
<linearGradient id="paint6_linear_114_6291" x1="66.9512" y1="56.829" x2="119.186" y2="41.3961" gradientUnits="userSpaceOnUse">
<stop stop-color="#EABD54"/>
<stop offset="0.06" stop-color="#F0CB66"/>
<stop offset="0.18" stop-color="#FBE485"/>
<stop offset="0.25" stop-color="#FFED91"/>
<stop offset="0.43" stop-color="#FEEC8F"/>
<stop offset="0.5" stop-color="#FCE688"/>
<stop offset="0.54" stop-color="#F8DD7D"/>
<stop offset="0.58" stop-color="#F2D06C"/>
<stop offset="0.61" stop-color="#EABD54"/>
<stop offset="0.66" stop-color="#D9AA45"/>
<stop offset="0.81" stop-color="#9F6D13"/>
<stop offset="0.88" stop-color="#895500"/>
<stop offset="0.89" stop-color="#936009"/>
<stop offset="0.94" stop-color="#C29231"/>
<stop offset="0.98" stop-color="#DFB14B"/>
<stop offset="1" stop-color="#EABD54"/>
</linearGradient>
<linearGradient id="paint7_linear_114_6291" x1="180.488" y1="102.783" x2="93.2501" y2="176.138" gradientUnits="userSpaceOnUse">
<stop stop-color="#EABD54"/>
<stop offset="0.06" stop-color="#F0CB66"/>
<stop offset="0.18" stop-color="#FBE485"/>
<stop offset="0.25" stop-color="#FFED91"/>
<stop offset="0.43" stop-color="#FEEC8F"/>
<stop offset="0.5" stop-color="#FCE688"/>
<stop offset="0.54" stop-color="#F8DD7D"/>
<stop offset="0.58" stop-color="#F2D06C"/>
<stop offset="0.61" stop-color="#EABD54"/>
<stop offset="0.66" stop-color="#D9AA45"/>
<stop offset="0.81" stop-color="#9F6D13"/>
<stop offset="0.88" stop-color="#895500"/>
<stop offset="0.89" stop-color="#936009"/>
<stop offset="0.94" stop-color="#C29231"/>
<stop offset="0.98" stop-color="#DFB14B"/>
<stop offset="1" stop-color="#EABD54"/>
</linearGradient>
<linearGradient id="paint8_linear_114_6291" x1="136.329" y1="290.041" x2="68.4119" y2="366.569" gradientUnits="userSpaceOnUse">
<stop stop-color="#C3852F"/>
<stop offset="0.07" stop-color="#DBAD50"/>
<stop offset="0.13" stop-color="#EECC69"/>
<stop offset="0.18" stop-color="#F9DF78"/>
<stop offset="0.22" stop-color="#FDE67E"/>
<stop offset="0.31" stop-color="#FAE27B"/>
<stop offset="0.39" stop-color="#F2D772"/>
<stop offset="0.48" stop-color="#E4C362"/>
<stop offset="0.56" stop-color="#D1A84D"/>
<stop offset="0.61" stop-color="#C1933C"/>
<stop offset="0.62" stop-color="#BE8F39"/>
<stop offset="0.71" stop-color="#A26B1F"/>
<stop offset="0.79" stop-color="#915410"/>
<stop offset="0.83" stop-color="#8B4C0A"/>
<stop offset="0.9" stop-color="#9A5F09"/>
<stop offset="1" stop-color="#AA7307"/>
</linearGradient>
<linearGradient id="paint9_linear_114_6291" x1="19.6982" y1="449.477" x2="72.916" y2="227.088" gradientUnits="userSpaceOnUse">
<stop stop-color="#C3852F"/>
<stop offset="0.07" stop-color="#DBAD50"/>
<stop offset="0.13" stop-color="#EECC69"/>
<stop offset="0.18" stop-color="#F9DF78"/>
<stop offset="0.22" stop-color="#FDE67E"/>
<stop offset="0.31" stop-color="#FAE27B"/>
<stop offset="0.39" stop-color="#F2D772"/>
<stop offset="0.48" stop-color="#E4C362"/>
<stop offset="0.56" stop-color="#D1A84D"/>
<stop offset="0.61" stop-color="#C1933C"/>
<stop offset="0.62" stop-color="#BE8F39"/>
<stop offset="0.71" stop-color="#A26B1F"/>
<stop offset="0.79" stop-color="#915410"/>
<stop offset="0.83" stop-color="#8B4C0A"/>
<stop offset="0.9" stop-color="#9A5F09"/>
<stop offset="1" stop-color="#AA7307"/>
</linearGradient>
<linearGradient id="paint10_linear_114_6291" x1="50.5669" y1="284.178" x2="23.6615" y2="454.331" gradientUnits="userSpaceOnUse">
<stop stop-color="#C3852F"/>
<stop offset="0.07" stop-color="#DBAD50"/>
<stop offset="0.13" stop-color="#EECC69"/>
<stop offset="0.18" stop-color="#F9DF78"/>
<stop offset="0.22" stop-color="#FDE67E"/>
<stop offset="0.31" stop-color="#FAE27B"/>
<stop offset="0.39" stop-color="#F2D772"/>
<stop offset="0.48" stop-color="#E4C362"/>
<stop offset="0.56" stop-color="#D1A84D"/>
<stop offset="0.61" stop-color="#C1933C"/>
<stop offset="0.62" stop-color="#BE8F39"/>
<stop offset="0.71" stop-color="#A26B1F"/>
<stop offset="0.79" stop-color="#915410"/>
<stop offset="0.83" stop-color="#8B4C0A"/>
<stop offset="0.9" stop-color="#9A5F09"/>
<stop offset="1" stop-color="#AA7307"/>
</linearGradient>
<linearGradient id="paint11_linear_114_6291" x1="40.4407" y1="287.042" x2="42.9665" y2="225.399" gradientUnits="userSpaceOnUse">
<stop stop-color="#C3852F"/>
<stop offset="0.07" stop-color="#DBAD50"/>
<stop offset="0.13" stop-color="#EECC69"/>
<stop offset="0.18" stop-color="#F9DF78"/>
<stop offset="0.22" stop-color="#FDE67E"/>
<stop offset="0.31" stop-color="#FAE27B"/>
<stop offset="0.39" stop-color="#F2D772"/>
<stop offset="0.48" stop-color="#E4C362"/>
<stop offset="0.56" stop-color="#D1A84D"/>
<stop offset="0.61" stop-color="#C1933C"/>
<stop offset="0.62" stop-color="#BE8F39"/>
<stop offset="0.71" stop-color="#A26B1F"/>
<stop offset="0.79" stop-color="#915410"/>
<stop offset="0.83" stop-color="#8B4C0A"/>
<stop offset="0.9" stop-color="#9A5F09"/>
<stop offset="1" stop-color="#AA7307"/>
</linearGradient>
<linearGradient id="paint12_linear_114_6291" x1="-32.8597" y1="246.264" x2="308.875" y2="450.538" gradientUnits="userSpaceOnUse">
<stop stop-color="#C3852F"/>
<stop offset="0.07" stop-color="#DBAD50"/>
<stop offset="0.13" stop-color="#EECC69"/>
<stop offset="0.18" stop-color="#F9DF78"/>
<stop offset="0.22" stop-color="#FDE67E"/>
<stop offset="0.31" stop-color="#FAE27B"/>
<stop offset="0.39" stop-color="#F2D772"/>
<stop offset="0.48" stop-color="#E4C362"/>
<stop offset="0.56" stop-color="#D1A84D"/>
<stop offset="0.61" stop-color="#C1933C"/>
<stop offset="0.62" stop-color="#BE8F39"/>
<stop offset="0.71" stop-color="#A26B1F"/>
<stop offset="0.79" stop-color="#915410"/>
<stop offset="0.83" stop-color="#8B4C0A"/>
<stop offset="0.9" stop-color="#9A5F09"/>
<stop offset="1" stop-color="#AA7307"/>
</linearGradient>
<linearGradient id="paint13_linear_114_6291" x1="81.9963" y1="330.295" x2="155.361" y2="374.148" gradientUnits="userSpaceOnUse">
<stop stop-color="#EABD54"/>
<stop offset="0.06" stop-color="#F0CB66"/>
<stop offset="0.18" stop-color="#FBE485"/>
<stop offset="0.25" stop-color="#FFED91"/>
<stop offset="0.43" stop-color="#FEEC8F"/>
<stop offset="0.5" stop-color="#FCE688"/>
<stop offset="0.54" stop-color="#F8DD7D"/>
<stop offset="0.58" stop-color="#F2D06C"/>
<stop offset="0.61" stop-color="#EABD54"/>
<stop offset="0.66" stop-color="#D9AA45"/>
<stop offset="0.81" stop-color="#9F6D13"/>
<stop offset="0.88" stop-color="#895500"/>
<stop offset="0.89" stop-color="#936009"/>
<stop offset="0.94" stop-color="#C29231"/>
<stop offset="0.98" stop-color="#DFB14B"/>
<stop offset="1" stop-color="#EABD54"/>
</linearGradient>
<linearGradient id="paint14_linear_114_6291" x1="23.9465" y1="297.946" x2="150.196" y2="373.413" gradientUnits="userSpaceOnUse">
<stop stop-color="#EABD54"/>
<stop offset="0.06" stop-color="#F0CB66"/>
<stop offset="0.18" stop-color="#FBE485"/>
<stop offset="0.25" stop-color="#FFED91"/>
<stop offset="0.43" stop-color="#FEEC8F"/>
<stop offset="0.5" stop-color="#FCE688"/>
<stop offset="0.54" stop-color="#F8DD7D"/>
<stop offset="0.58" stop-color="#F2D06C"/>
<stop offset="0.61" stop-color="#EABD54"/>
<stop offset="0.66" stop-color="#D9AA45"/>
<stop offset="0.81" stop-color="#9F6D13"/>
<stop offset="0.88" stop-color="#895500"/>
<stop offset="0.89" stop-color="#936009"/>
<stop offset="0.94" stop-color="#C29231"/>
<stop offset="0.98" stop-color="#DFB14B"/>
<stop offset="1" stop-color="#EABD54"/>
</linearGradient>
<linearGradient id="paint15_linear_114_6291" x1="29.8663" y1="241.321" x2="107.453" y2="287.698" gradientUnits="userSpaceOnUse">
<stop stop-color="#EABD54"/>
<stop offset="0.06" stop-color="#F0CB66"/>
<stop offset="0.18" stop-color="#FBE485"/>
<stop offset="0.25" stop-color="#FFED91"/>
<stop offset="0.43" stop-color="#FEEC8F"/>
<stop offset="0.5" stop-color="#FCE688"/>
<stop offset="0.54" stop-color="#F8DD7D"/>
<stop offset="0.58" stop-color="#F2D06C"/>
<stop offset="0.61" stop-color="#EABD54"/>
<stop offset="0.66" stop-color="#D9AA45"/>
<stop offset="0.81" stop-color="#9F6D13"/>
<stop offset="0.88" stop-color="#895500"/>
<stop offset="0.89" stop-color="#936009"/>
<stop offset="0.94" stop-color="#C29231"/>
<stop offset="0.98" stop-color="#DFB14B"/>
<stop offset="1" stop-color="#EABD54"/>
</linearGradient>
<radialGradient id="paint16_radial_114_6291" cx="0" cy="0" r="1" gradientUnits="userSpaceOnUse" gradientTransform="translate(106.388 251.062) scale(70.8202)">
<stop offset="0.27" stop-color="#690B02"/>
<stop offset="0.39" stop-color="#8F4941"/>
<stop offset="0.51" stop-color="#B18079"/>
<stop offset="0.62" stop-color="#CDADA8"/>
<stop offset="0.73" stop-color="#E3D1CD"/>
<stop offset="0.84" stop-color="#F2EAE7"/>
<stop offset="0.93" stop-color="#FCFAF6"/>
<stop offset="1" stop-color="#FFFFFC"/>
</radialGradient>
<radialGradient id="paint17_radial_114_6291" cx="0" cy="0" r="1" gradientUnits="userSpaceOnUse" gradientTransform="translate(181.616 101.163) scale(70.8203)">
<stop offset="0.27" stop-color="#690B02"/>
<stop offset="0.39" stop-color="#8F4941"/>
<stop offset="0.51" stop-color="#B18079"/>
<stop offset="0.62" stop-color="#CDADA8"/>
<stop offset="0.73" stop-color="#E3D1CD"/>
<stop offset="0.84" stop-color="#F2EAE7"/>
<stop offset="0.93" stop-color="#FCFAF6"/>
<stop offset="1" stop-color="#FFFFFC"/>
</radialGradient>
<radialGradient id="paint18_radial_114_6291" cx="0" cy="0" r="1" gradientUnits="userSpaceOnUse" gradientTransform="translate(176.616 251.736) scale(93.4443)">
<stop offset="0.33" stop-color="#FF0B08"/>
<stop offset="0.77" stop-color="#BE0100"/>
<stop offset="1" stop-color="#EC0503"/>
</radialGradient>
<radialGradient id="paint19_radial_114_6291" cx="0" cy="0" r="1" gradientUnits="userSpaceOnUse" gradientTransform="translate(205.357 233.99) rotate(-39.9079) scale(36.9351 51.5769)">
<stop stop-color="#8A8A8A"/>
<stop offset="0.16" stop-color="#747474"/>
<stop offset="1"/>
</radialGradient>
<radialGradient id="paint20_radial_114_6291" cx="0" cy="0" r="1" gradientUnits="userSpaceOnUse" gradientTransform="translate(141.32 219.995) rotate(-117.277) scale(22.2952 30.8779)">
<stop stop-color="#8A8A8A"/>
<stop offset="0.16" stop-color="#747474"/>
<stop offset="1"/>
</radialGradient>
<linearGradient id="paint21_linear_114_6291" x1="117.391" y1="164.099" x2="224.54" y2="364.635" gradientUnits="userSpaceOnUse">
<stop stop-color="#F2D977"/>
<stop offset="0.04" stop-color="#E8CB65"/>
<stop offset="0.1" stop-color="#DAB74C"/>
<stop offset="0.16" stop-color="#D2AB3D"/>
<stop offset="0.21" stop-color="#CFA738"/>
<stop offset="0.34" stop-color="#E1C863"/>
<stop offset="0.56" stop-color="#FFFFAA"/>
<stop offset="0.6" stop-color="#FEFBA5"/>
<stop offset="0.66" stop-color="#FAF096"/>
<stop offset="0.72" stop-color="#F3DD7D"/>
<stop offset="0.79" stop-color="#EAC45A"/>
<stop offset="0.84" stop-color="#E1AB39"/>
<stop offset="0.89" stop-color="#D7A136"/>
<stop offset="0.96" stop-color="#BD882D"/>
<stop offset="1" stop-color="#AC7828"/>
</linearGradient>
<linearGradient id="paint22_linear_114_6291" x1="139.196" y1="152.468" x2="246.337" y2="352.987" gradientUnits="userSpaceOnUse">
<stop stop-color="#F2D977"/>
<stop offset="0.04" stop-color="#E8CB65"/>
<stop offset="0.1" stop-color="#DAB74C"/>
<stop offset="0.16" stop-color="#D2AB3D"/>
<stop offset="0.21" stop-color="#CFA738"/>
<stop offset="0.34" stop-color="#E1C863"/>
<stop offset="0.56" stop-color="#FFFFAA"/>
<stop offset="0.6" stop-color="#FEFBA5"/>
<stop offset="0.66" stop-color="#FAF096"/>
<stop offset="0.72" stop-color="#F3DD7D"/>
<stop offset="0.79" stop-color="#EAC45A"/>
<stop offset="0.84" stop-color="#E1AB39"/>
<stop offset="0.89" stop-color="#D7A136"/>
<stop offset="0.96" stop-color="#BD882D"/>
<stop offset="1" stop-color="#AC7828"/>
</linearGradient>
<linearGradient id="paint23_linear_114_6291" x1="138.756" y1="152.699" x2="245.898" y2="353.219" gradientUnits="userSpaceOnUse">
<stop stop-color="#F2D977"/>
<stop offset="0.04" stop-color="#E8CB65"/>
<stop offset="0.1" stop-color="#DAB74C"/>
<stop offset="0.16" stop-color="#D2AB3D"/>
<stop offset="0.21" stop-color="#CFA738"/>
<stop offset="0.34" stop-color="#E1C863"/>
<stop offset="0.56" stop-color="#FFFFAA"/>
<stop offset="0.6" stop-color="#FEFBA5"/>
<stop offset="0.66" stop-color="#FAF096"/>
<stop offset="0.72" stop-color="#F3DD7D"/>
<stop offset="0.79" stop-color="#EAC45A"/>
<stop offset="0.84" stop-color="#E1AB39"/>
<stop offset="0.89" stop-color="#D7A136"/>
<stop offset="0.96" stop-color="#BD882D"/>
<stop offset="1" stop-color="#AC7828"/>
</linearGradient>
<linearGradient id="paint24_linear_114_6291" x1="136.118" y1="154.11" x2="243.264" y2="354.63" gradientUnits="userSpaceOnUse">
<stop stop-color="#F2D977"/>
<stop offset="0.04" stop-color="#E8CB65"/>
<stop offset="0.1" stop-color="#DAB74C"/>
<stop offset="0.16" stop-color="#D2AB3D"/>
<stop offset="0.21" stop-color="#CFA738"/>
<stop offset="0.34" stop-color="#E1C863"/>
<stop offset="0.56" stop-color="#FFFFAA"/>
<stop offset="0.6" stop-color="#FEFBA5"/>
<stop offset="0.66" stop-color="#FAF096"/>
<stop offset="0.72" stop-color="#F3DD7D"/>
<stop offset="0.79" stop-color="#EAC45A"/>
<stop offset="0.84" stop-color="#E1AB39"/>
<stop offset="0.89" stop-color="#D7A136"/>
<stop offset="0.96" stop-color="#BD882D"/>
<stop offset="1" stop-color="#AC7828"/>
</linearGradient>
<linearGradient id="paint25_linear_114_6291" x1="131.629" y1="156.51" x2="238.771" y2="357.029" gradientUnits="userSpaceOnUse">
<stop stop-color="#F2D977"/>
<stop offset="0.04" stop-color="#E8CB65"/>
<stop offset="0.1" stop-color="#DAB74C"/>
<stop offset="0.16" stop-color="#D2AB3D"/>
<stop offset="0.21" stop-color="#CFA738"/>
<stop offset="0.34" stop-color="#E1C863"/>
<stop offset="0.56" stop-color="#FFFFAA"/>
<stop offset="0.6" stop-color="#FEFBA5"/>
<stop offset="0.66" stop-color="#FAF096"/>
<stop offset="0.72" stop-color="#F3DD7D"/>
<stop offset="0.79" stop-color="#EAC45A"/>
<stop offset="0.84" stop-color="#E1AB39"/>
<stop offset="0.89" stop-color="#D7A136"/>
<stop offset="0.96" stop-color="#BD882D"/>
<stop offset="1" stop-color="#AC7828"/>
</linearGradient>
<linearGradient id="paint26_linear_114_6291" x1="126.631" y1="159.183" x2="233.773" y2="359.699" gradientUnits="userSpaceOnUse">
<stop stop-color="#F2D977"/>
<stop offset="0.04" stop-color="#E8CB65"/>
<stop offset="0.1" stop-color="#DAB74C"/>
<stop offset="0.16" stop-color="#D2AB3D"/>
<stop offset="0.21" stop-color="#CFA738"/>
<stop offset="0.34" stop-color="#E1C863"/>
<stop offset="0.56" stop-color="#FFFFAA"/>
<stop offset="0.6" stop-color="#FEFBA5"/>
<stop offset="0.66" stop-color="#FAF096"/>
<stop offset="0.72" stop-color="#F3DD7D"/>
<stop offset="0.79" stop-color="#EAC45A"/>
<stop offset="0.84" stop-color="#E1AB39"/>
<stop offset="0.89" stop-color="#D7A136"/>
<stop offset="0.96" stop-color="#BD882D"/>
<stop offset="1" stop-color="#AC7828"/>
</linearGradient>
<linearGradient id="paint27_linear_114_6291" x1="120.719" y1="162.339" x2="227.861" y2="362.855" gradientUnits="userSpaceOnUse">
<stop stop-color="#F2D977"/>
<stop offset="0.04" stop-color="#E8CB65"/>
<stop offset="0.1" stop-color="#DAB74C"/>
<stop offset="0.16" stop-color="#D2AB3D"/>
<stop offset="0.21" stop-color="#CFA738"/>
<stop offset="0.34" stop-color="#E1C863"/>
<stop offset="0.56" stop-color="#FFFFAA"/>
<stop offset="0.6" stop-color="#FEFBA5"/>
<stop offset="0.66" stop-color="#FAF096"/>
<stop offset="0.72" stop-color="#F3DD7D"/>
<stop offset="0.79" stop-color="#EAC45A"/>
<stop offset="0.84" stop-color="#E1AB39"/>
<stop offset="0.89" stop-color="#D7A136"/>
<stop offset="0.96" stop-color="#BD882D"/>
<stop offset="1" stop-color="#AC7828"/>
</linearGradient>
<linearGradient id="paint28_linear_114_6291" x1="114.02" y1="165.918" x2="221.161" y2="366.438" gradientUnits="userSpaceOnUse">
<stop stop-color="#F2D977"/>
<stop offset="0.04" stop-color="#E8CB65"/>
<stop offset="0.1" stop-color="#DAB74C"/>
<stop offset="0.16" stop-color="#D2AB3D"/>
<stop offset="0.21" stop-color="#CFA738"/>
<stop offset="0.34" stop-color="#E1C863"/>
<stop offset="0.56" stop-color="#FFFFAA"/>
<stop offset="0.6" stop-color="#FEFBA5"/>
<stop offset="0.66" stop-color="#FAF096"/>
<stop offset="0.72" stop-color="#F3DD7D"/>
<stop offset="0.79" stop-color="#EAC45A"/>
<stop offset="0.84" stop-color="#E1AB39"/>
<stop offset="0.89" stop-color="#D7A136"/>
<stop offset="0.96" stop-color="#BD882D"/>
<stop offset="1" stop-color="#AC7828"/>
</linearGradient>
<linearGradient id="paint29_linear_114_6291" x1="107.884" y1="169.2" x2="215.026" y2="369.715" gradientUnits="userSpaceOnUse">
<stop stop-color="#F2D977"/>
<stop offset="0.04" stop-color="#E8CB65"/>
<stop offset="0.1" stop-color="#DAB74C"/>
<stop offset="0.16" stop-color="#D2AB3D"/>
<stop offset="0.21" stop-color="#CFA738"/>
<stop offset="0.34" stop-color="#E1C863"/>
<stop offset="0.56" stop-color="#FFFFAA"/>
<stop offset="0.6" stop-color="#FEFBA5"/>
<stop offset="0.66" stop-color="#FAF096"/>
<stop offset="0.72" stop-color="#F3DD7D"/>
<stop offset="0.79" stop-color="#EAC45A"/>
<stop offset="0.84" stop-color="#E1AB39"/>
<stop offset="0.89" stop-color="#D7A136"/>
<stop offset="0.96" stop-color="#BD882D"/>
<stop offset="1" stop-color="#AC7828"/>
</linearGradient>
<linearGradient id="paint30_linear_114_6291" x1="102.266" y1="172.199" x2="209.408" y2="372.718" gradientUnits="userSpaceOnUse">
<stop stop-color="#F2D977"/>
<stop offset="0.04" stop-color="#E8CB65"/>
<stop offset="0.1" stop-color="#DAB74C"/>
<stop offset="0.16" stop-color="#D2AB3D"/>
<stop offset="0.21" stop-color="#CFA738"/>
<stop offset="0.34" stop-color="#E1C863"/>
<stop offset="0.56" stop-color="#FFFFAA"/>
<stop offset="0.6" stop-color="#FEFBA5"/>
<stop offset="0.66" stop-color="#FAF096"/>
<stop offset="0.72" stop-color="#F3DD7D"/>
<stop offset="0.79" stop-color="#EAC45A"/>
<stop offset="0.84" stop-color="#E1AB39"/>
<stop offset="0.89" stop-color="#D7A136"/>
<stop offset="0.96" stop-color="#BD882D"/>
<stop offset="1" stop-color="#AC7828"/>
</linearGradient>
<linearGradient id="paint31_linear_114_6291" x1="96.1273" y1="175.48" x2="203.269" y2="376" gradientUnits="userSpaceOnUse">
<stop stop-color="#F2D977"/>
<stop offset="0.04" stop-color="#E8CB65"/>
<stop offset="0.1" stop-color="#DAB74C"/>
<stop offset="0.16" stop-color="#D2AB3D"/>
<stop offset="0.21" stop-color="#CFA738"/>
<stop offset="0.34" stop-color="#E1C863"/>
<stop offset="0.56" stop-color="#FFFFAA"/>
<stop offset="0.6" stop-color="#FEFBA5"/>
<stop offset="0.66" stop-color="#FAF096"/>
<stop offset="0.72" stop-color="#F3DD7D"/>
<stop offset="0.79" stop-color="#EAC45A"/>
<stop offset="0.84" stop-color="#E1AB39"/>
<stop offset="0.89" stop-color="#D7A136"/>
<stop offset="0.96" stop-color="#BD882D"/>
<stop offset="1" stop-color="#AC7828"/>
</linearGradient>
<linearGradient id="paint32_linear_114_6291" x1="89.8547" y1="178.832" x2="196.997" y2="379.347" gradientUnits="userSpaceOnUse">
<stop stop-color="#F2D977"/>
<stop offset="0.04" stop-color="#E8CB65"/>
<stop offset="0.1" stop-color="#DAB74C"/>
<stop offset="0.16" stop-color="#D2AB3D"/>
<stop offset="0.21" stop-color="#CFA738"/>
<stop offset="0.34" stop-color="#E1C863"/>
<stop offset="0.56" stop-color="#FFFFAA"/>
<stop offset="0.6" stop-color="#FEFBA5"/>
<stop offset="0.66" stop-color="#FAF096"/>
<stop offset="0.72" stop-color="#F3DD7D"/>
<stop offset="0.79" stop-color="#EAC45A"/>
<stop offset="0.84" stop-color="#E1AB39"/>
<stop offset="0.89" stop-color="#D7A136"/>
<stop offset="0.96" stop-color="#BD882D"/>
<stop offset="1" stop-color="#AC7828"/>
</linearGradient>
<linearGradient id="paint33_linear_114_6291" x1="162.208" y1="151.009" x2="178.767" y2="151.009" gradientUnits="userSpaceOnUse">
<stop stop-color="#E9C156"/>
<stop offset="0.01" stop-color="#CFA549"/>
<stop offset="0.04" stop-color="#A87B34"/>
<stop offset="0.06" stop-color="#885924"/>
<stop offset="0.08" stop-color="#724118"/>
<stop offset="0.1" stop-color="#653311"/>
<stop offset="0.12" stop-color="#602E0F"/>
<stop offset="0.17" stop-color="#784517"/>
<stop offset="0.27" stop-color="#B5812B"/>
<stop offset="0.33" stop-color="#E1AB39"/>
<stop offset="0.34" stop-color="#E3B141"/>
<stop offset="0.38" stop-color="#EDCD66"/>
<stop offset="0.41" stop-color="#F5E384"/>
<stop offset="0.45" stop-color="#FBF299"/>
<stop offset="0.49" stop-color="#FEFCA6"/>
<stop offset="0.52" stop-color="#FFFFAA"/>
<stop offset="0.54" stop-color="#FDFAA3"/>
<stop offset="0.57" stop-color="#F8EC90"/>
<stop offset="0.61" stop-color="#F0D470"/>
<stop offset="0.65" stop-color="#E4B445"/>
<stop offset="0.66" stop-color="#E1AB39"/>
<stop offset="0.7" stop-color="#C48F30"/>
<stop offset="0.79" stop-color="#8E5B1E"/>
<stop offset="0.85" stop-color="#6D3A13"/>
<stop offset="0.89" stop-color="#602E0F"/>
<stop offset="0.91" stop-color="#643311"/>
<stop offset="0.92" stop-color="#724118"/>
<stop offset="0.94" stop-color="#875823"/>
<stop offset="0.96" stop-color="#A57933"/>
<stop offset="0.99" stop-color="#CCA247"/>
<stop offset="1" stop-color="#E9C156"/>
</linearGradient>
<linearGradient id="paint34_linear_114_6291" x1="151.662" y1="164.593" x2="188.674" y2="164.593" gradientUnits="userSpaceOnUse">
<stop stop-color="#E9C156"/>
<stop offset="0.01" stop-color="#CFA549"/>
<stop offset="0.04" stop-color="#A87B34"/>
<stop offset="0.06" stop-color="#885924"/>
<stop offset="0.08" stop-color="#724118"/>
<stop offset="0.1" stop-color="#653311"/>
<stop offset="0.12" stop-color="#602E0F"/>
<stop offset="0.17" stop-color="#784517"/>
<stop offset="0.27" stop-color="#B5812B"/>
<stop offset="0.33" stop-color="#E1AB39"/>
<stop offset="0.34" stop-color="#E3B141"/>
<stop offset="0.38" stop-color="#EDCD66"/>
<stop offset="0.41" stop-color="#F5E384"/>
<stop offset="0.45" stop-color="#FBF299"/>
<stop offset="0.49" stop-color="#FEFCA6"/>
<stop offset="0.52" stop-color="#FFFFAA"/>
<stop offset="0.54" stop-color="#FDFAA3"/>
<stop offset="0.57" stop-color="#F8EC90"/>
<stop offset="0.61" stop-color="#F0D470"/>
<stop offset="0.65" stop-color="#E4B445"/>
<stop offset="0.66" stop-color="#E1AB39"/>
<stop offset="0.7" stop-color="#C48F30"/>
<stop offset="0.79" stop-color="#8E5B1E"/>
<stop offset="0.85" stop-color="#6D3A13"/>
<stop offset="0.89" stop-color="#602E0F"/>
<stop offset="0.91" stop-color="#643311"/>
<stop offset="0.92" stop-color="#724118"/>
<stop offset="0.94" stop-color="#875823"/>
<stop offset="0.96" stop-color="#A57933"/>
<stop offset="0.99" stop-color="#CCA247"/>
<stop offset="1" stop-color="#E9C156"/>
</linearGradient>
<radialGradient id="paint35_radial_114_6291" cx="0" cy="0" r="1" gradientUnits="userSpaceOnUse" gradientTransform="translate(249.179 250.511) scale(70.8203)">
<stop offset="0.27" stop-color="#690B02"/>
<stop offset="0.39" stop-color="#8F4941"/>
<stop offset="0.51" stop-color="#B18079"/>
<stop offset="0.62" stop-color="#CDADA8"/>
<stop offset="0.73" stop-color="#E3D1CD"/>
<stop offset="0.84" stop-color="#F2EAE7"/>
<stop offset="0.93" stop-color="#FCFAF6"/>
<stop offset="1" stop-color="#FFFFFC"/>
</radialGradient>
<radialGradient id="paint36_radial_114_6291" cx="0" cy="0" r="1" gradientUnits="userSpaceOnUse" gradientTransform="translate(164.432 351.493) rotate(4.18001) scale(70.8203 70.8203)">
<stop offset="0.27" stop-color="#690B02"/>
<stop offset="0.39" stop-color="#8F4941"/>
<stop offset="0.51" stop-color="#B18079"/>
<stop offset="0.62" stop-color="#CDADA8"/>
<stop offset="0.73" stop-color="#E3D1CD"/>
<stop offset="0.84" stop-color="#F2EAE7"/>
<stop offset="0.93" stop-color="#FCFAF6"/>
<stop offset="1" stop-color="#FFFFFC"/>
</radialGradient>
<linearGradient id="paint37_linear_114_6291" x1="239.265" y1="223.309" x2="258.771" y2="126.764" gradientUnits="userSpaceOnUse">
<stop stop-color="#C3852F"/>
<stop offset="0.07" stop-color="#DBAD50"/>
<stop offset="0.13" stop-color="#EECC69"/>
<stop offset="0.18" stop-color="#F9DF78"/>
<stop offset="0.22" stop-color="#FDE67E"/>
<stop offset="0.31" stop-color="#FAE27B"/>
<stop offset="0.39" stop-color="#F2D772"/>
<stop offset="0.48" stop-color="#E4C362"/>
<stop offset="0.56" stop-color="#D1A84D"/>
<stop offset="0.61" stop-color="#C1933C"/>
<stop offset="0.62" stop-color="#BE8F39"/>
<stop offset="0.71" stop-color="#A26B1F"/>
<stop offset="0.79" stop-color="#915410"/>
<stop offset="0.83" stop-color="#8B4C0A"/>
<stop offset="0.9" stop-color="#9A5F09"/>
<stop offset="1" stop-color="#AA7307"/>
</linearGradient>
<linearGradient id="paint38_linear_114_6291" x1="317.473" y1="137.502" x2="227.613" y2="258.861" gradientUnits="userSpaceOnUse">
<stop stop-color="#C3852F"/>
<stop offset="0.07" stop-color="#DBAD50"/>
<stop offset="0.13" stop-color="#EECC69"/>
<stop offset="0.18" stop-color="#F9DF78"/>
<stop offset="0.22" stop-color="#FDE67E"/>
<stop offset="0.31" stop-color="#FAE27B"/>
<stop offset="0.39" stop-color="#F2D772"/>
<stop offset="0.48" stop-color="#E4C362"/>
<stop offset="0.56" stop-color="#D1A84D"/>
<stop offset="0.61" stop-color="#C1933C"/>
<stop offset="0.62" stop-color="#BE8F39"/>
<stop offset="0.71" stop-color="#A26B1F"/>
<stop offset="0.79" stop-color="#915410"/>
<stop offset="0.83" stop-color="#8B4C0A"/>
<stop offset="0.9" stop-color="#9A5F09"/>
<stop offset="1" stop-color="#AA7307"/>
</linearGradient>
<linearGradient id="paint39_linear_114_6291" x1="190.24" y1="60.0136" x2="332.109" y2="363.216" gradientUnits="userSpaceOnUse">
<stop stop-color="#C3852F"/>
<stop offset="0.07" stop-color="#DBAD50"/>
<stop offset="0.13" stop-color="#EECC69"/>
<stop offset="0.18" stop-color="#F9DF78"/>
<stop offset="0.22" stop-color="#FDE67E"/>
<stop offset="0.31" stop-color="#FAE27B"/>
<stop offset="0.39" stop-color="#F2D772"/>
<stop offset="0.48" stop-color="#E4C362"/>
<stop offset="0.56" stop-color="#D1A84D"/>
<stop offset="0.61" stop-color="#C1933C"/>
<stop offset="0.62" stop-color="#BE8F39"/>
<stop offset="0.71" stop-color="#A26B1F"/>
<stop offset="0.79" stop-color="#915410"/>
<stop offset="0.83" stop-color="#8B4C0A"/>
<stop offset="0.9" stop-color="#9A5F09"/>
<stop offset="1" stop-color="#AA7307"/>
</linearGradient>
<linearGradient id="paint40_linear_114_6291" x1="215.831" y1="48.4586" x2="356.833" y2="349.809" gradientUnits="userSpaceOnUse">
<stop stop-color="#EABD54"/>
<stop offset="0.06" stop-color="#F0CB66"/>
<stop offset="0.18" stop-color="#FBE485"/>
<stop offset="0.25" stop-color="#FFED91"/>
<stop offset="0.43" stop-color="#FEEC8F"/>
<stop offset="0.5" stop-color="#FCE688"/>
<stop offset="0.54" stop-color="#F8DD7D"/>
<stop offset="0.58" stop-color="#F2D06C"/>
<stop offset="0.61" stop-color="#EABD54"/>
<stop offset="0.66" stop-color="#D9AA45"/>
<stop offset="0.81" stop-color="#9F6D13"/>
<stop offset="0.88" stop-color="#895500"/>
<stop offset="0.89" stop-color="#936009"/>
<stop offset="0.94" stop-color="#C29231"/>
<stop offset="0.98" stop-color="#DFB14B"/>
<stop offset="1" stop-color="#EABD54"/>
</linearGradient>
<linearGradient id="paint41_linear_114_6291" x1="202.498" y1="109" x2="289.293" y2="294.493" gradientUnits="userSpaceOnUse">
<stop stop-color="#EABD54"/>
<stop offset="0.06" stop-color="#F0CB66"/>
<stop offset="0.18" stop-color="#FBE485"/>
<stop offset="0.25" stop-color="#FFED91"/>
<stop offset="0.43" stop-color="#FEEC8F"/>
<stop offset="0.5" stop-color="#FCE688"/>
<stop offset="0.54" stop-color="#F8DD7D"/>
<stop offset="0.58" stop-color="#F2D06C"/>
<stop offset="0.61" stop-color="#EABD54"/>
<stop offset="0.66" stop-color="#D9AA45"/>
<stop offset="0.81" stop-color="#9F6D13"/>
<stop offset="0.88" stop-color="#895500"/>
<stop offset="0.89" stop-color="#936009"/>
<stop offset="0.94" stop-color="#C29231"/>
<stop offset="0.98" stop-color="#DFB14B"/>
<stop offset="1" stop-color="#EABD54"/>
</linearGradient>
<linearGradient id="paint42_linear_114_6291" x1="166.242" y1="383.834" x2="233.516" y2="399.316" gradientUnits="userSpaceOnUse">
<stop stop-color="#C3852F"/>
<stop offset="0.07" stop-color="#DBAD50"/>
<stop offset="0.13" stop-color="#EECC69"/>
<stop offset="0.18" stop-color="#F9DF78"/>
<stop offset="0.22" stop-color="#FDE67E"/>
<stop offset="0.31" stop-color="#FAE27B"/>
<stop offset="0.39" stop-color="#F2D772"/>
<stop offset="0.48" stop-color="#E4C362"/>
<stop offset="0.56" stop-color="#D1A84D"/>
<stop offset="0.61" stop-color="#C1933C"/>
<stop offset="0.62" stop-color="#BE8F39"/>
<stop offset="0.71" stop-color="#A26B1F"/>
<stop offset="0.79" stop-color="#915410"/>
<stop offset="0.83" stop-color="#8B4C0A"/>
<stop offset="0.9" stop-color="#9A5F09"/>
<stop offset="1" stop-color="#AA7307"/>
</linearGradient>
<linearGradient id="paint43_linear_114_6291" x1="322.673" y1="328.714" x2="224.82" y2="464.777" gradientUnits="userSpaceOnUse">
<stop stop-color="#C3852F"/>
<stop offset="0.07" stop-color="#DBAD50"/>
<stop offset="0.13" stop-color="#EECC69"/>
<stop offset="0.18" stop-color="#F9DF78"/>
<stop offset="0.22" stop-color="#FDE67E"/>
<stop offset="0.31" stop-color="#FAE27B"/>
<stop offset="0.39" stop-color="#F2D772"/>
<stop offset="0.48" stop-color="#E4C362"/>
<stop offset="0.56" stop-color="#D1A84D"/>
<stop offset="0.61" stop-color="#C1933C"/>
<stop offset="0.62" stop-color="#BE8F39"/>
<stop offset="0.71" stop-color="#A26B1F"/>
<stop offset="0.79" stop-color="#915410"/>
<stop offset="0.83" stop-color="#8B4C0A"/>
<stop offset="0.9" stop-color="#9A5F09"/>
<stop offset="1" stop-color="#AA7307"/>
</linearGradient>
<linearGradient id="paint44_linear_114_6291" x1="221.876" y1="233.824" x2="218.861" y2="433.388" gradientUnits="userSpaceOnUse">
<stop stop-color="#C3852F"/>
<stop offset="0.07" stop-color="#DBAD50"/>
<stop offset="0.13" stop-color="#EECC69"/>
<stop offset="0.18" stop-color="#F9DF78"/>
<stop offset="0.22" stop-color="#FDE67E"/>
<stop offset="0.31" stop-color="#FAE27B"/>
<stop offset="0.39" stop-color="#F2D772"/>
<stop offset="0.48" stop-color="#E4C362"/>
<stop offset="0.56" stop-color="#D1A84D"/>
<stop offset="0.61" stop-color="#C1933C"/>
<stop offset="0.62" stop-color="#BE8F39"/>
<stop offset="0.71" stop-color="#A26B1F"/>
<stop offset="0.79" stop-color="#915410"/>
<stop offset="0.83" stop-color="#8B4C0A"/>
<stop offset="0.9" stop-color="#9A5F09"/>
<stop offset="1" stop-color="#AA7307"/>
</linearGradient>
<linearGradient id="paint45_linear_114_6291" x1="238.846" y1="336.633" x2="236.392" y2="409.456" gradientUnits="userSpaceOnUse">
<stop stop-color="#C3852F"/>
<stop offset="0.07" stop-color="#DBAD50"/>
<stop offset="0.13" stop-color="#EECC69"/>
<stop offset="0.18" stop-color="#F9DF78"/>
<stop offset="0.22" stop-color="#FDE67E"/>
<stop offset="0.31" stop-color="#FAE27B"/>
<stop offset="0.39" stop-color="#F2D772"/>
<stop offset="0.48" stop-color="#E4C362"/>
<stop offset="0.56" stop-color="#D1A84D"/>
<stop offset="0.61" stop-color="#C1933C"/>
<stop offset="0.62" stop-color="#BE8F39"/>
<stop offset="0.71" stop-color="#A26B1F"/>
<stop offset="0.79" stop-color="#915410"/>
<stop offset="0.83" stop-color="#8B4C0A"/>
<stop offset="0.9" stop-color="#9A5F09"/>
<stop offset="1" stop-color="#AA7307"/>
</linearGradient>
<linearGradient id="paint46_linear_114_6291" x1="303.872" y1="315.196" x2="206.019" y2="451.258" gradientUnits="userSpaceOnUse">
<stop stop-color="#C3852F"/>
<stop offset="0.07" stop-color="#DBAD50"/>
<stop offset="0.13" stop-color="#EECC69"/>
<stop offset="0.18" stop-color="#F9DF78"/>
<stop offset="0.22" stop-color="#FDE67E"/>
<stop offset="0.31" stop-color="#FAE27B"/>
<stop offset="0.39" stop-color="#F2D772"/>
<stop offset="0.48" stop-color="#E4C362"/>
<stop offset="0.56" stop-color="#D1A84D"/>
<stop offset="0.61" stop-color="#C1933C"/>
<stop offset="0.62" stop-color="#BE8F39"/>
<stop offset="0.71" stop-color="#A26B1F"/>
<stop offset="0.79" stop-color="#915410"/>
<stop offset="0.83" stop-color="#8B4C0A"/>
<stop offset="0.9" stop-color="#9A5F09"/>
<stop offset="1" stop-color="#AA7307"/>
</linearGradient>
<linearGradient id="paint47_linear_114_6291" x1="259.116" y1="372.824" x2="273.64" y2="504.284" gradientUnits="userSpaceOnUse">
<stop stop-color="#C3852F"/>
<stop offset="0.07" stop-color="#DBAD50"/>
<stop offset="0.13" stop-color="#EECC69"/>
<stop offset="0.18" stop-color="#F9DF78"/>
<stop offset="0.22" stop-color="#FDE67E"/>
<stop offset="0.31" stop-color="#FAE27B"/>
<stop offset="0.39" stop-color="#F2D772"/>
<stop offset="0.48" stop-color="#E4C362"/>
<stop offset="0.56" stop-color="#D1A84D"/>
<stop offset="0.61" stop-color="#C1933C"/>
<stop offset="0.62" stop-color="#BE8F39"/>
<stop offset="0.71" stop-color="#A26B1F"/>
<stop offset="0.79" stop-color="#915410"/>
<stop offset="0.83" stop-color="#8B4C0A"/>
<stop offset="0.9" stop-color="#9A5F09"/>
<stop offset="1" stop-color="#AA7307"/>
</linearGradient>
<linearGradient id="paint48_linear_114_6291" x1="282.279" y1="337.598" x2="244.274" y2="443.295" gradientUnits="userSpaceOnUse">
<stop stop-color="#C3852F"/>
<stop offset="0.07" stop-color="#DBAD50"/>
<stop offset="0.13" stop-color="#EECC69"/>
<stop offset="0.18" stop-color="#F9DF78"/>
<stop offset="0.22" stop-color="#FDE67E"/>
<stop offset="0.31" stop-color="#FAE27B"/>
<stop offset="0.39" stop-color="#F2D772"/>
<stop offset="0.48" stop-color="#E4C362"/>
<stop offset="0.56" stop-color="#D1A84D"/>
<stop offset="0.61" stop-color="#C1933C"/>
<stop offset="0.62" stop-color="#BE8F39"/>
<stop offset="0.71" stop-color="#A26B1F"/>
<stop offset="0.79" stop-color="#915410"/>
<stop offset="0.83" stop-color="#8B4C0A"/>
<stop offset="0.9" stop-color="#9A5F09"/>
<stop offset="1" stop-color="#AA7307"/>
</linearGradient>
<linearGradient id="paint49_linear_114_6291" x1="251.103" y1="228.731" x2="236.288" y2="363.379" gradientUnits="userSpaceOnUse">
<stop stop-color="#C3852F"/>
<stop offset="0.07" stop-color="#DBAD50"/>
<stop offset="0.13" stop-color="#EECC69"/>
<stop offset="0.18" stop-color="#F9DF78"/>
<stop offset="0.22" stop-color="#FDE67E"/>
<stop offset="0.31" stop-color="#FAE27B"/>
<stop offset="0.39" stop-color="#F2D772"/>
<stop offset="0.48" stop-color="#E4C362"/>
<stop offset="0.56" stop-color="#D1A84D"/>
<stop offset="0.61" stop-color="#C1933C"/>
<stop offset="0.62" stop-color="#BE8F39"/>
<stop offset="0.71" stop-color="#A26B1F"/>
<stop offset="0.79" stop-color="#915410"/>
<stop offset="0.83" stop-color="#8B4C0A"/>
<stop offset="0.9" stop-color="#9A5F09"/>
<stop offset="1" stop-color="#AA7307"/>
</linearGradient>
<linearGradient id="paint50_linear_114_6291" x1="154.297" y1="444.805" x2="305.805" y2="288.451" gradientUnits="userSpaceOnUse">
<stop stop-color="#C3852F"/>
<stop offset="0.07" stop-color="#DBAD50"/>
<stop offset="0.13" stop-color="#EECC69"/>
<stop offset="0.18" stop-color="#F9DF78"/>
<stop offset="0.22" stop-color="#FDE67E"/>
<stop offset="0.31" stop-color="#FAE27B"/>
<stop offset="0.39" stop-color="#F2D772"/>
<stop offset="0.48" stop-color="#E4C362"/>
<stop offset="0.56" stop-color="#D1A84D"/>
<stop offset="0.61" stop-color="#C1933C"/>
<stop offset="0.62" stop-color="#BE8F39"/>
<stop offset="0.71" stop-color="#A26B1F"/>
<stop offset="0.79" stop-color="#915410"/>
<stop offset="0.83" stop-color="#8B4C0A"/>
<stop offset="0.9" stop-color="#9A5F09"/>
<stop offset="1" stop-color="#AA7307"/>
</linearGradient>
<linearGradient id="paint51_linear_114_6291" x1="261.241" y1="307.581" x2="116.455" y2="426" gradientUnits="userSpaceOnUse">
<stop stop-color="#C3852F"/>
<stop offset="0.07" stop-color="#DBAD50"/>
<stop offset="0.13" stop-color="#EECC69"/>
<stop offset="0.18" stop-color="#F9DF78"/>
<stop offset="0.22" stop-color="#FDE67E"/>
<stop offset="0.31" stop-color="#FAE27B"/>
<stop offset="0.39" stop-color="#F2D772"/>
<stop offset="0.48" stop-color="#E4C362"/>
<stop offset="0.56" stop-color="#D1A84D"/>
<stop offset="0.61" stop-color="#C1933C"/>
<stop offset="0.62" stop-color="#BE8F39"/>
<stop offset="0.71" stop-color="#A26B1F"/>
<stop offset="0.79" stop-color="#915410"/>
<stop offset="0.83" stop-color="#8B4C0A"/>
<stop offset="0.9" stop-color="#9A5F09"/>
<stop offset="1" stop-color="#AA7307"/>
</linearGradient>
<linearGradient id="paint52_linear_114_6291" x1="295.205" y1="349.113" x2="150.43" y2="467.522" gradientUnits="userSpaceOnUse">
<stop stop-color="#C3852F"/>
<stop offset="0.07" stop-color="#DBAD50"/>
<stop offset="0.13" stop-color="#EECC69"/>
<stop offset="0.18" stop-color="#F9DF78"/>
<stop offset="0.22" stop-color="#FDE67E"/>
<stop offset="0.31" stop-color="#FAE27B"/>
<stop offset="0.39" stop-color="#F2D772"/>
<stop offset="0.48" stop-color="#E4C362"/>
<stop offset="0.56" stop-color="#D1A84D"/>
<stop offset="0.61" stop-color="#C1933C"/>
<stop offset="0.62" stop-color="#BE8F39"/>
<stop offset="0.71" stop-color="#A26B1F"/>
<stop offset="0.79" stop-color="#915410"/>
<stop offset="0.83" stop-color="#8B4C0A"/>
<stop offset="0.9" stop-color="#9A5F09"/>
<stop offset="1" stop-color="#AA7307"/>
</linearGradient>
<linearGradient id="paint53_linear_114_6291" x1="314.337" y1="372.503" x2="169.557" y2="490.915" gradientUnits="userSpaceOnUse">
<stop stop-color="#C3852F"/>
<stop offset="0.07" stop-color="#DBAD50"/>
<stop offset="0.13" stop-color="#EECC69"/>
<stop offset="0.18" stop-color="#F9DF78"/>
<stop offset="0.22" stop-color="#FDE67E"/>
<stop offset="0.31" stop-color="#FAE27B"/>
<stop offset="0.39" stop-color="#F2D772"/>
<stop offset="0.48" stop-color="#E4C362"/>
<stop offset="0.56" stop-color="#D1A84D"/>
<stop offset="0.61" stop-color="#C1933C"/>
<stop offset="0.62" stop-color="#BE8F39"/>
<stop offset="0.71" stop-color="#A26B1F"/>
<stop offset="0.79" stop-color="#915410"/>
<stop offset="0.83" stop-color="#8B4C0A"/>
<stop offset="0.9" stop-color="#9A5F09"/>
<stop offset="1" stop-color="#AA7307"/>
</linearGradient>
<clipPath id="clip0_114_6291">
<rect width="319.83" height="464.662" fill="white" transform="translate(0.169922 0.113037)"/>
</clipPath>
</defs>
</svg>
